<?xml version="1.0" encoding="utf-8"?>
<!-- Generator: Adobe Illustrator 18.0.0, SVG Export Plug-In . SVG Version: 6.00 Build 0)  -->
<!DOCTYPE svg PUBLIC "-//W3C//DTD SVG 1.1//EN" "http://www.w3.org/Graphics/SVG/1.1/DTD/svg11.dtd">
<svg version="1.1" id="Ebene_1" xmlns="http://www.w3.org/2000/svg" xmlns:xlink="http://www.w3.org/1999/xlink" x="0px" y="0px"
	 viewBox="0 0 500 577.3" enable-background="new 0 0 500 577.3" xml:space="preserve">
<path fill="#FFFFFF" d="M491.3,0L475,9.4L458.7,0h-0.8l-16.3,9.4L425.4,0h-0.8l-16.3,9.4L392.1,0h-0.8L375,9.4L358.7,0h-0.8
	l-16.3,9.4L325.4,0h-0.8l-16.3,9.4L292.1,0h-0.8L275,9.4L258.7,0h-0.8l-16.3,9.4L225.4,0h-0.8l-16.3,9.4L192.1,0h-0.8L175,9.4
	L158.7,0h-0.8l-16.3,9.4L125.4,0h-0.8l-16.3,9.4L92.1,0h-0.8L75,9.4L58.7,0h-0.8L41.7,9.4L25.4,0h-0.8L8.3,9.4L0,4.6V5l7.9,4.6
	L0,14.2v0.5l8.3-4.8l16.3,9.4L8.3,28.6L0,23.8v0.5L8.1,29v18.8L0,43.1v0.5l8.1,4.7V67L0,62.3v0.5l8.1,4.7v18.8L0,81.6V82l8.1,4.7
	v18.8L0,100.8v0.5l8.1,4.7v18.8l-0.4-0.2L0,120.1v0.5l7.9,4.6L0,129.7v0.5l8.3-4.8l16.3,9.4l-16.3,9.4L0,139.3v0.5l7.9,4.6L0,148.9
	v0.5l8.3-4.8l16.3,9.4l-16.3,9.4L0,158.5v0.5l7.9,4.6L0,168.2v0.5l8.1-4.7v18.8L0,187.4v0.5l8.1-4.7V202L0,206.7v0.5l8.1-4.7v18.8
	L0,225.9v0.5l8.1-4.7v18.8L0,245.1v0.5l8.1-4.7v18.8L0,264.4v0.5l8.3-4.8l16.3,9.4l-16.3,9.4L0,274v0.5l7.9,4.6L0,283.6v0.5l8.3-4.8
	l16.3,9.4l-16.3,9.4L0,293.3v0.5l7.9,4.6L0,302.9v0.5l8.3-4.8l16.3,9.4l-16.3,9.4L0,312.5v0.5l8.1,4.7v18.8L0,331.7v0.5l8.1,4.7
	v18.8L0,351v0.5l8.1,4.7v18.8L0,370.2v0.5l8.1,4.7v18.8L0,389.5v0.5l8.1,4.7v18.8l-0.4-0.2L0,408.7v0.5l7.9,4.6L0,418.3v0.5l8.3-4.8
	l16.3,9.4l-16.3,9.4L0,428v0.5l7.9,4.6L0,437.6v0.5l8.3-4.8l16.3,9.4L8.3,452L0,447.2v0.5l7.9,4.6L0,456.8v0.5l8.1-4.7v18.8L0,476.1
	v0.5l8.1-4.7v18.8L0,495.3v0.5l8.1-4.7v18.8L0,514.6v0.5l8.1-4.7v18.8L0,533.8v0.5l8.1-4.7v18.8L0,553.1v0.5l8.3-4.8l16.3,9.4
	l-16.3,9.4L0,562.7v0.5l7.9,4.6L0,572.3v0.5l8.3-4.8l16.3,9.4l0,0h0.8l0,0l16.3-9.4l16.3,9.4l0,0h0.8l0,0L75,568l16.3,9.4l0,0h0.8
	l0,0l16.3-9.4l16.3,9.4l0,0h0.8l0,0l16.3-9.4l16.3,9.4l0,0h0.8l0,0L175,568l16.3,9.4l0,0h0.8l0,0l16.3-9.4l16.3,9.4l0,0h0.8l0,0
	l16.3-9.4l16.3,9.4l0,0h0.8l0,0L275,568l16.3,9.4l0,0h0.8l0,0l16.3-9.4l16.3,9.4l0,0h0.8l0,0l16.3-9.4l16.3,9.4l0,0h0.8l0,0L375,568
	l16.3,9.4l0,0h0.8l0,0l16.3-9.4l16.3,9.4l0,0h0.8l0,0l16.3-9.4l16.3,9.4l0,0h0.8l0,0L475,568l16.3,9.4l0,0h0.8l0,0l7.9-4.6v-0.5
	l-8.3,4.8l-16.3-9.4l16.3-9.4l8.3,4.8v-0.5l-7.9-4.6l7.9-4.6v-0.5l-8.1,4.7V539l8.1-4.7v-0.5l-8.1,4.7v-18.8l8.1-4.7v-0.5l-8.1,4.7
	l0-18.8l8.1-4.7v-0.5l-8.1,4.7v-18.8l8.1-4.7v-0.5l-8.1,4.7V462l8.1-4.7v-0.5l-8.3,4.8l-16.3-9.4l16.3-9.4l8.3,4.8v-0.5l-7.9-4.6
	l7.9-4.6v-0.5l-8.3,4.8l-16.3-9.4l16.3-9.4l8.3,4.8V428l-7.9-4.6l7.9-4.6v-0.5l-8.3,4.8l-16.3-9.4l16.3-9.4l8.3,4.8v-0.5l-8.1-4.7
	v-18.8l8.1,4.7v-0.5l-8.1-4.7V366l8.1,4.7v-0.5l-8.1-4.7v-18.8l8.1,4.7V351l-8.1-4.7v-18.8l8.1,4.7v-0.5l-8.1-4.7v-18.8l8.1,4.7
	v-0.5l-7.9-4.6l7.9-4.6v-0.5l-8.3,4.8l-16.3-9.4l16.3-9.4l8.3,4.8v-0.5l-7.9-4.6l7.9-4.6v-0.5l-8.3,4.8l-16.3-9.4l16.3-9.4l8.3,4.8
	V274l-7.9-4.6l7.9-4.6v-0.5l-8.1,4.7v-18.8l8.1-4.7v-0.5l-8.1,4.7v-18.8l8.1-4.7v-0.5l-8.1,4.7l0-18.8l8.1-4.7v-0.5l-8.1,4.7v-18.8
	l8.1-4.7v-0.5l-8.1,4.7v-18.8l8.1-4.7v-0.5l-8.3,4.8l-16.3-9.4l16.3-9.4l8.3,4.8v-0.5l-7.9-4.6l7.9-4.6v-0.5l-8.3,4.8l-16.3-9.4
	l16.3-9.4l8.3,4.8v-0.5l-7.9-4.6l7.9-4.6v-0.5l-8.3,4.8l-16.3-9.4l16.3-9.4l8.3,4.8v-0.5l-8.1-4.7V96.6l8.1,4.7v-0.5l-8.1-4.7V77.3
	L500,82v-0.5l-8.1-4.7V58.1l8.1,4.7v-0.5l-8.1-4.7V38.8l8.1,4.7v-0.5l-8.1-4.7V19.6l8.1,4.7v-0.5l-7.9-4.6l7.9-4.6v-0.5l-8.3,4.8
	l-16.3-9.4l16.3-9.4L500,5V4.6L492.1,0H491.3z M458.1,0.3v18.8l-16.3,9.4V9.7L458.1,0.3z M108.1,67.7v18.8l-16.3,9.4V77.1
	L108.1,67.7z M75.2,86.3V67.5l16.3-9.4v18.8L75.2,86.3z M374.8,509.9l-16.3,9.4v-18.8l16.3-9.4V509.9z M375.2,491.1l16.3,9.4v18.8
	l-16.3-9.4V491.1z M341.9,509.7v-18.8l16.3-9.4v18.8L341.9,509.7z M358.1,77.1v18.8l-16.3-9.4V67.7L358.1,77.1z M358.5,76.9V58.1
	l16.3,9.4l0,18.8L358.5,76.9z M341.5,86.7v18.8l-16.3-9.4V77.3L341.5,86.7z M208.5,106l16.3-9.4v18.8l-16.3,9.4V106z M208.1,124.8
	l-16.3-9.4V96.6l16.3,9.4L208.1,124.8z M241.5,106.2V125l-16.3,9.4v-18.8L241.5,106.2z M241.7,125.3l16.3,9.4l-16.3,9.4l-16.3-9.4
	L241.7,125.3z M242.1,125.1l16.3-9.4l16.3,9.4l-16.3,9.4L242.1,125.1z M258.7,115.5l16.3-9.4l16.3,9.4l-16.3,9.4L258.7,115.5z
	 M241.9,124.8V106l16.3-9.4v18.8L241.9,124.8z M225.2,115.1V96.3l16.3-9.4l0,18.8L225.2,115.1z M208.5,105.5V86.7l16.3-9.4v18.8
	L208.5,105.5z M208.1,105.5l-16.3-9.4V77.3l16.3,9.4V105.5z M191.5,96.3v18.8l-16.3-9.4V86.9L191.5,96.3z M174.8,106v18.8l-0.4-0.2
	l-15.8-9.1V96.6L174.8,106z M175.2,106.2l16.3,9.4v18.8l-16.3-9.4V106.2z M191.9,115.8l16.3,9.4V144l-16.3-9.4V115.8z M208.5,125.2
	l16.3-9.4v18.8l-16.3,9.4V125.2z M225,134.9l16.3,9.4l-16.3,9.4l-16.3-9.4L225,134.9z M258.1,230.6l-16.3-9.4v-18.8l16.3,9.4V230.6z
	 M258.5,212l16.3,9.4v18.8l-16.3-9.4V212z M241.5,221l-16.3-9.4v-18.8l16.3,9.4V221z M224.8,211.8l0,18.8l-16.3-9.4l0-18.8
	L224.8,211.8z M225.2,212l16.3,9.4v18.8l-16.3-9.4L225.2,212z M241.9,221.7l16.3,9.4v18.8l-16.3-9.4V221.7z M258.5,231.3l16.3,9.4
	v18.8l-16.3-9.4V231.3z M275.2,240.4v-18.8l16.3,9.4v18.8L275.2,240.4z M275.2,221.2v-18.8l16.3,9.4v18.8L275.2,221.2z M274.8,221
	l-16.3-9.4v-18.8l16.3,9.4V221z M258.1,211.4l-16.3-9.4v-18.8l16.3,9.4V211.4z M241.5,201.7l-16.3-9.4l0-18.8l16.3,9.4V201.7z
	 M224.8,192.6v18.8l-16.3-9.4v-18.8L224.8,192.6z M208.1,202l-16.3,9.4v-18.8l16.3-9.4V202z M208.1,202.4v18.8l-16.3,9.4v-18.8
	L208.1,202.4z M224.8,231.1v18.8l-16.3-9.4v-18.8L224.8,231.1z M225.2,231.3l16.3,9.4v18.8l-16.3-9.4V231.3z M241.9,240.9l16.3,9.4
	v18.8l-0.4-0.2l-15.8-9.1V240.9z M258.5,250.5l16.3,9.4v18.8l-16.3-9.4V250.5z M275.2,259.7v-18.8l16.3,9.4l0,18.8L275.2,259.7z
	 M291.9,231.1l16.3-9.4v18.8l-16.3,9.4V231.1z M291.9,230.6v-18.8l16.3-9.4v18.8L291.9,230.6z M291.9,211.4v-18.8l16.3-9.4V202
	L291.9,211.4z M291.5,192.6v18.8l-16.3-9.4v-18.8L291.5,192.6z M274.8,201.7l-16.3-9.4v-18.8l16.3,9.4V201.7z M258.1,192.1
	l-16.3-9.4v-18.8l16.3,9.4V192.1z M241.5,182.5l-16.3-9.4v-18.8l16.3,9.4V182.5z M224.8,173.3l0,18.8l-16.3-9.4l0-18.8L224.8,173.3z
	 M208.1,182.7l-16.3,9.4v-18.8l16.3-9.4V182.7z M191.5,192.3l-16.3,9.4v-18.8l16.3-9.4V192.3z M174.8,202l-16.3,9.4l0-18.8l16.3-9.4
	V202z M191.5,192.8v18.8l-16.3,9.4v-18.8L191.5,192.8z M191.5,212v18.8l-16.3,9.4v-18.8L191.5,212z M208.1,221.7v18.8l-16.3,9.4
	v-18.8L208.1,221.7z M208.3,240.8l16.3,9.4l-16.3,9.4l-16.3-9.4L208.3,240.8z M225,250.4l16.3,9.4l-16.3,9.4l-16.3-9.4L225,250.4z
	 M241.7,260l16.3,9.4l-16.3,9.4l-16.3-9.4L241.7,260z M258.3,269.7l16.3,9.4l-16.3,9.4l-16.3-9.4L258.3,269.7z M275.2,278.9v-18.8
	l16.3,9.4v18.8L275.2,278.9z M291.9,250.3l16.3-9.4v18.8l-16.3,9.4L291.9,250.3z M308.5,240.7l16.3-9.4l0,18.8l-16.3,9.4V240.7z
	 M325.2,231.1l16.3-9.4v18.8l-16.3,9.4L325.2,231.1z M308.5,240.2v-18.8l16.3-9.4v18.8L308.5,240.2z M308.5,221v-18.8l16.3-9.4v18.8
	L308.5,221z M308.5,201.7v-18.8l16.3-9.4v18.8L308.5,201.7z M291.7,192.2l-16.3-9.4l16.3-9.4l16.3,9.4L291.7,192.2z M275,182.6
	l-16.3-9.4l16.3-9.4l16.3,9.4L275,182.6z M258.3,173l-16.3-9.4l16.3-9.4l16.3,9.4L258.3,173z M241.7,163.4l-16.3-9.4l16.3-9.4
	l16.3,9.4L241.7,163.4z M224.8,154.1v18.8l-16.3-9.4v-18.8L224.8,154.1z M208.1,163.5l-16.3,9.4v-18.8l16.3-9.4V163.5z M191.5,173.1
	l-16.3,9.4v-18.8l16.3-9.4V173.1z M174.8,182.7l-16.3,9.4v-18.8l16.3-9.4V182.7z M158.1,192.3l-16.3,9.4v-18.8l16.3-9.4V192.3z
	 M141.5,202l-16.3,9.4v-18.8l16.3-9.4V202z M158.1,192.8v18.8l-16.3,9.4v-18.8L158.1,192.8z M174.8,202.4v18.8l-16.3,9.4v-18.8
	L174.8,202.4z M174.8,221.7v18.8l-16.3,9.4l0-18.8L174.8,221.7z M191.5,231.3v18.8l-16.3,9.4v-18.8L191.5,231.3z M191.7,250.4
	l16.3,9.4l-16.3,9.4l-16.3-9.4L191.7,250.4z M208.3,260l16.3,9.4l-16.3,9.4l-16.3-9.4L208.3,260z M225,269.7l16.3,9.4l-16.3,9.4
	l-16.3-9.4L225,269.7z M241.7,279.3l16.3,9.4l-16.3,9.4l-16.3-9.4L241.7,279.3z M225.2,365.3v-18.8l16.3-9.4l0,18.8L225.2,365.3z
	 M258.1,346.8v18.8l-16.3,9.4v-18.8L258.1,346.8z M224.8,365.5l-16.3,9.4l0-18.8l16.3-9.4V365.5z M241.5,356.4v18.8l-16.3,9.4v-18.8
	L241.5,356.4z M258.1,366v18.8l-16.3,9.4l0-18.8L258.1,366z M258.5,365.8l16.3-9.4v18.8l-16.3,9.4V365.8z M275.2,356.1l16.3-9.4
	v18.8l-16.3,9.4V356.1z M258.5,365.3v-18.8l16.3-9.4v18.8L258.5,365.3z M241.9,355.7l0-18.8l16.3-9.4v18.8L241.9,355.7z
	 M241.9,336.4v-18.8l16.3-9.4v18.8L241.9,336.4z M241.5,336.7l-16.3,9.4v-18.8l16.3-9.4V336.7z M224.8,346.3l-16.3,9.4v-18.8
	l16.3-9.4V346.3z M208.1,356.1l0,18.8l-16.3-9.4v-18.8L208.1,356.1z M191.5,365.8v18.8l-16.3-9.4v-18.8L191.5,365.8z M191.9,366
	l16.3,9.4v18.8l-16.3-9.4V366z M208.5,375.4l16.3-9.4v18.8l-16.3,9.4V375.4z M241.5,375.6l0,18.8l-16.3,9.4V385L241.5,375.6z
	 M258.1,385.2V404l-16.3,9.4v-18.8L258.1,385.2z M258.5,385l16.3-9.4v18.8l-16.3,9.4V385z M275.2,375.4l16.3-9.4v18.8l-16.3,9.4
	V375.4z M291.9,384.8V366l16.3,9.4v18.8L291.9,384.8z M291.9,365.5v-18.8l16.3,9.4v18.8L291.9,365.5z M308.5,355.9v-18.8l16.3,9.4
	v18.8L308.5,355.9z M308.1,355.7l-16.3-9.4v-18.8l16.3,9.4V355.7z M291.5,346.3l-16.3,9.4v-18.8l16.3-9.4V346.3z M258.5,346.1v-18.8
	l16.3-9.4v18.8L258.5,346.1z M258.5,326.8V308l16.3-9.4v18.8L258.5,326.8z M241.7,317.3l-16.3-9.4l16.3-9.4l16.3,9.4L241.7,317.3z
	 M241.3,317.5l-16.3,9.4l-16.3-9.4l16.3-9.4L241.3,317.5z M224.6,327.2l-16.3,9.4l-16.3-9.4l16.3-9.4L224.6,327.2z M208.1,336.9
	v18.8l-16.3-9.4v-18.8L208.1,336.9z M191.5,346.5v18.8l-16.3-9.4v-18.8L191.5,346.5z M174.8,356.1v18.8l-16.3-9.4v-18.8L174.8,356.1
	z M174.8,375.4v18.8l-16.3-9.4V366L174.8,375.4z M175.2,375.6l16.3,9.4v18.8l-16.3-9.4V375.6z M191.9,385.2l16.3,9.4l0,18.8
	l-16.3-9.4V385.2z M208.5,394.6l16.3-9.4V404l-16.3,9.4V394.6z M241.5,394.9v18.8l-1.8,1.1l-14.4,8.3v-18.8L241.5,394.9z M241.7,414
	l16.3,9.4l-16.3,9.4l-16.3-9.4L241.7,414z M242.1,413.8l16.3-9.4l16.3,9.4l-16.3,9.4L242.1,413.8z M258.7,404.1l16.3-9.4l16.3,9.4
	l-16.3,9.4L258.7,404.1z M275.4,394.5l16.3-9.4l16.3,9.4l-16.3,9.4L275.4,394.5z M308.5,394.4v-18.8l16.3,9.4v18.8L308.5,394.4z
	 M308.5,375.2v-18.8l16.3,9.4v18.8L308.5,375.2z M325.2,365.5v-18.8l16.3,9.4v18.8L325.2,365.5z M341.9,355.9v-18.8l16.3,9.4v18.8
	L341.9,355.9z M341.5,355.7l-16.3-9.4v-18.8l16.3,9.4V355.7z M324.8,346.1l-16.3-9.4l0-18.8l16.3,9.4V346.1z M308.1,336.4l-16.3-9.4
	l0-18.8l16.3,9.4V336.4z M291.5,327.1l-16.3,9.4v-18.8l16.3-9.4V327.1z M275.2,317.2v-18.8l16.3-9.4v18.8L275.2,317.2z M258.3,307.7
	l-16.3-9.4l16.3-9.4l16.3,9.4L258.3,307.7z M241.3,298.3l-16.3,9.4l-16.3-9.4l16.3-9.4L241.3,298.3z M224.6,307.9l-16.3,9.4
	l-16.3-9.4l16.3-9.4L224.6,307.9z M207.9,317.5l-16.3,9.4l-16.3-9.4l16.3-9.4L207.9,317.5z M191.5,327.3v18.8l-16.3-9.4v-18.8
	L191.5,327.3z M174.8,336.9v18.8l-16.3-9.4v-18.8L174.8,336.9z M158.1,346.5v18.8l-16.3-9.4v-18.8L158.1,346.5z M158.1,365.8v18.8
	l-16.3-9.4l0-18.8L158.1,365.8z M141.5,375.4v18.8l-16.3-9.4V366L141.5,375.4z M141.9,375.6l16.3,9.4v18.8l-16.3-9.4V375.6z
	 M158.5,385.2l16.3,9.4v18.8l-0.4-0.2l-15.8-9.1V385.2z M175.2,394.9l16.3,9.4V423l-16.3-9.4V394.9z M191.9,404.5l16.3,9.4v18.8
	l-16.3-9.4V404.5z M208.5,413.9l16.3-9.4v18.8l-16.3,9.4V413.9z M225,423.6l16.3,9.4l-16.3,9.4l-16.3-9.4L225,423.6z M208.5,452.6
	l16.3,9.4l0,18.8l-16.3-9.4L208.5,452.6z M191.9,480.8V462l16.3-9.4v18.8L191.9,480.8z M208.5,452.1v-18.8l16.3,9.4v18.8
	L208.5,452.1z M225.2,461.8V443l16.3,9.4v18.8L225.2,461.8z M242.1,452.3l16.3-9.4l16.3,9.4l-16.3,9.4L242.1,452.3z M241.7,452
	l-16.3-9.4l16.3-9.4l16.3,9.4L241.7,452z M208.1,452.1l-16.3,9.4v-18.8l16.3-9.4V452.1z M191.5,461.8l-16.3,9.4v-18.8l16.3-9.4
	V461.8z M174.8,471.4l-16.3,9.4V462l16.3-9.4V471.4z M191.5,462.2V481l-16.3,9.4v-18.8L191.5,462.2z M208.1,471.8v18.8l-16.3,9.4
	v-18.8L208.1,471.8z M208.5,490.6v-18.8l16.3,9.4V500L208.5,490.6z M225.2,481l0-18.8l16.3,9.4v18.8L225.2,481z M241.9,471.4v-18.8
	l16.3,9.4v18.8L241.9,471.4z M258.7,461.9l16.3-9.4l16.3,9.4l-16.3,9.4L258.7,461.9z M308.3,452.5l16.3,9.4l-16.3,9.4l-16.3-9.4
	L308.3,452.5z M291.7,461.7l-16.3-9.4l16.3-9.4l16.3,9.4L291.7,461.7z M275,452l-16.3-9.4l16.3-9.4l16.3,9.4L275,452z M258.3,442.4
	l-16.3-9.4l16.3-9.4l16.3,9.4L258.3,442.4z M258.7,423.4L275,414l16.3,9.4l-16.3,9.4L258.7,423.4z M275.4,413.8l16.3-9.4l16.3,9.4
	l-16.3,9.4L275.4,413.8z M292.1,404.1l16.3-9.4l16.3,9.4l-16.3,9.4L292.1,404.1z M325.2,404v-18.8l16.3,9.4v18.8l-0.4-0.2L325.2,404
	z M325.2,384.8V366l16.3,9.4v18.8L325.2,384.8z M341.9,375.2v-18.8l16.3,9.4v18.8L341.9,375.2z M358.5,365.5v-18.8l16.3,9.4v18.8
	L358.5,365.5z M358.5,346.3v-18.8l16.3,9.4v18.8L358.5,346.3z M358.1,346.1l-16.3-9.4v-18.8l16.3,9.4V346.1z M341.5,336.4l-16.3-9.4
	v-18.8l16.3,9.4V336.4z M324.8,326.8l-16.3-9.4v-18.8l16.3,9.4V326.8z M308.1,317.2l-16.3-9.4V289l16.3,9.4V317.2z M275,298.1
	l-16.3-9.4l16.3-9.4l16.3,9.4L275,298.1z M291.9,269.5l16.3-9.4v18.8l-16.3,9.4V269.5z M308.5,259.9l16.3-9.4v18.8l-16.3,9.4V259.9z
	 M325.2,250.3l16.3-9.4v18.8l-16.3,9.4V250.3z M341.9,240.7l16.3-9.4v18.8l-16.3,9.4V240.7z M358.5,231.1l16.3-9.4v18.8l-16.3,9.4
	V231.1z M341.9,240.2v-18.8l16.3-9.4v18.8L341.9,240.2z M325.2,230.6v-18.8l16.3-9.4v18.8L325.2,230.6z M325.2,211.4v-18.8l16.3-9.4
	V202L325.2,211.4z M325.2,192.1v-18.8l16.3-9.4v18.8L325.2,192.1z M308.3,182.6l-16.3-9.4l16.3-9.4l16.3,9.4L308.3,182.6z
	 M291.7,173l-16.3-9.4l16.3-9.4l16.3,9.4L291.7,173z M275,163.4l-16.3-9.4l16.3-9.4l16.3,9.4L275,163.4z M258.3,153.7l-16.3-9.4
	l16.3-9.4l16.3,9.4L258.3,153.7z M258.7,134.7l16.3-9.4l16.3,9.4l-16.3,9.4L258.7,134.7z M275.4,125.1l16.3-9.4l16.3,9.4l-16.3,9.4
	L275.4,125.1z M292.1,115.5l16.3-9.4l16.3,9.4l-16.3,9.4L292.1,115.5z M325.2,115.4V96.6l16.3,9.4v18.8l-0.4-0.2L325.2,115.4z
	 M324.8,96.3v18.8l-16.3-9.4V86.9L324.8,96.3z M307.9,105.8l-16.3,9.4l-16.3-9.4l16.3-9.4L307.9,105.8z M260.8,113.8l-2.3,1.3V96.3
	l16.3-9.4v18.8L260.8,113.8z M241.9,105.5l0-18.8l16.3-9.4v18.8L241.9,105.5z M225.2,95.9V77.1l16.3-9.4v18.8L225.2,95.9z
	 M208.5,86.3l0-18.8l16.3-9.4v18.8L208.5,86.3z M208.1,86.3l-16.3-9.4V58.1l16.3,9.4L208.1,86.3z M191.5,77.1v18.8l-16.3-9.4V67.7
	L191.5,77.1z M174.8,86.7v18.8l-16.3-9.4V77.3L174.8,86.7z M158.1,96.3v18.8l-16.3-9.4V86.9L158.1,96.3z M141.3,105.8l-16.3,9.4
	l-16.3-9.4l16.3-9.4L141.3,105.8z M141.7,106.1l16.3,9.4l-16.3,9.4l-16.3-9.4L141.7,106.1z M158.3,115.7l16.3,9.4l-16.3,9.4
	l-16.3-9.4L158.3,115.7z M175,125.3l16.3,9.4l-16.3,9.4l-16.3-9.4L175,125.3z M191.7,134.9l16.3,9.4l-16.3,9.4l-16.3-9.4
	L191.7,134.9z M191.3,154l-16.3,9.4l-16.3-9.4l16.3-9.4L191.3,154z M174.6,163.6l-16.3,9.4l-16.3-9.4l16.3-9.4L174.6,163.6z
	 M157.9,173.2l-16.3,9.4l-16.3-9.4l16.3-9.4L157.9,173.2z M141.3,182.8l-16.3,9.4l-16.3-9.4l16.3-9.4L141.3,182.8z M124.8,192.6
	v18.8l-16.3-9.4v-18.8L124.8,192.6z M108.1,202.2V221l-16.3-9.4v-18.8L108.1,202.2z M108.5,202.4l16.3,9.4l0,18.8l-16.3-9.4V202.4z
	 M125.2,211.8l16.3-9.4v18.8l-16.3,9.4L125.2,211.8z M158.1,212v18.8l-16.3,9.4v-18.8L158.1,212z M158.1,231.3l0,18.8l-16.3,9.4
	v-18.8L158.1,231.3z M174.8,240.9v18.8l-16.3,9.4v-18.8L174.8,240.9z M175,260l16.3,9.4l-16.3,9.4l-16.3-9.4L175,260z M191.7,269.7
	l16.3,9.4l-16.3,9.4l-16.3-9.4L191.7,269.7z M208.3,279.3l16.3,9.4l-16.3,9.4l-16.3-9.4L208.3,279.3z M207.9,298.3l-16.3,9.4
	l-16.3-9.4l16.3-9.4L207.9,298.3z M191.3,307.9l-16.3,9.4l-16.3-9.4l16.3-9.4L191.3,307.9z M174.8,317.7v18.8l-16.3-9.4v-18.8
	L174.8,317.7z M158.1,327.3v18.8l-16.3-9.4l0-18.8L158.1,327.3z M141.5,336.9v18.8l-16.3-9.4v-18.8L141.5,336.9z M141.5,356.1
	l0,18.8l-16.3-9.4l0-18.8L141.5,356.1z M124.8,365.5l-16.3,9.4v-18.8l16.3-9.4V365.5z M124.8,366v18.8l-16.3,9.4v-18.8L124.8,366z
	 M125,385.1l16.3,9.4l-16.3,9.4l-16.3-9.4L125,385.1z M141.7,394.7l16.3,9.4l-16.3,9.4l-16.3-9.4L141.7,394.7z M158.3,404.4
	l16.3,9.4l-16.3,9.4l-16.3-9.4L158.3,404.4z M175,414l16.3,9.4l-16.3,9.4l-16.3-9.4L175,414z M191.7,423.6l16.3,9.4l-16.3,9.4
	l-16.3-9.4L191.7,423.6z M191.3,442.6L175,452l-16.3-9.4l16.3-9.4L191.3,442.6z M174.6,452.3l-16.3,9.4l-16.3-9.4l16.3-9.4
	L174.6,452.3z M157.9,461.9l-16.3,9.4l-16.3-9.4l16.3-9.4L157.9,461.9z M141.3,471.5l-16.3,9.4l-16.3-9.4l16.3-9.4L141.3,471.5z
	 M158.1,462.2V481l-16.3,9.4v-18.8L158.1,462.2z M174.8,471.8v18.8l-16.3,9.4l0-18.8L174.8,471.8z M191.5,481.5v18.8l-16.3,9.4
	v-18.8L191.5,481.5z M208.1,491.1v18.8l-16.3,9.4v-18.8L208.1,491.1z M208.5,509.9v-18.8l16.3,9.4l0,18.8L208.5,509.9z M225.2,500.3
	v-18.8l16.3,9.4v18.8L225.2,500.3z M241.9,490.6v-18.8l16.3,9.4V500L241.9,490.6z M258.5,481v-18.8l16.3,9.4v18.8L258.5,481z
	 M275.4,471.5l16.3-9.4l16.3,9.4l-16.3,9.4L275.4,471.5z M324.8,462.2V481l-16.3,9.4v-18.8L324.8,462.2z M341.5,471.8v18.8
	l-16.3,9.4l0-18.8L341.5,471.8z M341.9,490.4v-18.8l16.3-9.4V481L341.9,490.4z M325.2,480.8V462l16.3-9.4v18.8L325.2,480.8z
	 M325,461.7l-16.3-9.4l16.3-9.4l16.3,9.4L325,461.7z M308.3,452l-16.3-9.4l16.3-9.4l16.3,9.4L308.3,452z M291.7,442.4l-16.3-9.4
	l16.3-9.4l16.3,9.4L291.7,442.4z M292.1,423.4l16.3-9.4l16.3,9.4l-16.3,9.4L292.1,423.4z M308.7,413.8l16.3-9.4l16.3,9.4l-16.3,9.4
	L308.7,413.8z M341.9,413.7v-18.8l16.3,9.4V423L341.9,413.7z M341.9,394.4v-18.8l16.3,9.4v18.8L341.9,394.4z M358.5,384.8V366
	l16.3,9.4v18.8L358.5,384.8z M375.2,356.1l16.3-9.4v18.8l-16.3,9.4V356.1z M375.2,355.7v-18.8l16.3-9.4v18.8L375.2,355.7z
	 M375,336.6l-16.3-9.4l16.3-9.4l16.3,9.4L375,336.6z M358.3,326.9l-16.3-9.4l16.3-9.4l16.3,9.4L358.3,326.9z M341.7,317.3l-16.3-9.4
	l16.3-9.4l16.3,9.4L341.7,317.3z M325,307.7l-16.3-9.4l16.3-9.4l16.3,9.4L325,307.7z M308.3,298.1l-16.3-9.4l16.3-9.4l16.3,9.4
	L308.3,298.1z M308.7,279.1l16.3-9.4l16.3,9.4l-16.3,9.4L308.7,279.1z M325.4,269.4l16.3-9.4l16.3,9.4l-16.3,9.4L325.4,269.4z
	 M342.1,259.8l16.3-9.4l16.3,9.4l-16.3,9.4L342.1,259.8z M358.7,250.2l16.3-9.4l16.3,9.4l-16.3,9.4L358.7,250.2z M375.2,240.4v-18.8
	l16.3,9.4v18.8L375.2,240.4z M391.9,230.8l0-18.8l16.3,9.4v18.8L391.9,230.8z M391.5,230.6l-16.3-9.4l0-18.8l16.3,9.4L391.5,230.6z
	 M374.8,221.2l-16.3,9.4v-18.8l16.3-9.4V221.2z M341.9,221v-18.8l16.3-9.4v18.8L341.9,221z M341.9,201.7v-18.8l16.3-9.4v18.8
	L341.9,201.7z M341.9,182.5v-18.8l16.3-9.4v18.8L341.9,182.5z M325,173l-16.3-9.4l16.3-9.4l16.3,9.4L325,173z M308.3,163.4
	l-16.3-9.4l16.3-9.4l16.3,9.4L308.3,163.4z M291.7,153.7l-16.3-9.4l16.3-9.4l16.3,9.4L291.7,153.7z M292.1,134.7l16.3-9.4l16.3,9.4
	l-16.3,9.4L292.1,134.7z M308.7,125.1l16.3-9.4l16.3,9.4l-16.3,9.4L308.7,125.1z M341.9,125v-18.8l16.3,9.4v18.8L341.9,125z
	 M341.9,105.7V86.9l16.3,9.4v18.8L341.9,105.7z M358.5,96.1V77.3l16.3,9.4v18.8L358.5,96.1z M375.2,67.5l16.3-9.4v18.8l-16.3,9.4
	L375.2,67.5z M375.2,67V48.2l16.3-9.4v18.8L375.2,67z M374.8,48.2V67l-16.3-9.4V38.8L374.8,48.2z M358.1,57.8v18.8l-16.3-9.4V48.5
	L358.1,57.8z M341.5,67.5v18.8l-16.3-9.4V58.1L341.5,67.5z M324.8,77.1v18.8l-16.3-9.4l0-18.8L324.8,77.1z M308.1,86.7v18.8
	l-16.3-9.4V77.3L308.1,86.7z M291.5,96.1l-16.3,9.4V86.7l16.3-9.4V96.1z M258.5,95.9V77.1l16.3-9.4v18.8L258.5,95.9z M241.9,86.3
	V67.5l16.3-9.4v18.8L241.9,86.3z M225.2,76.6V57.8l16.3-9.4l0,18.8L225.2,76.6z M208.5,67V48.2l16.3-9.4v18.8L208.5,67z M208.1,48.2
	V67l-16.3-9.4V38.8L208.1,48.2z M191.5,57.8v18.8l-16.3-9.4V48.5L191.5,57.8z M174.8,67.5v18.8l-16.3-9.4V58.1L174.8,67.5z
	 M158.1,77.1v18.8l-16.3-9.4l0-18.8L158.1,77.1z M141.5,86.7v18.8l-16.3-9.4V77.3L141.5,86.7z M124.8,96.1l-16.3,9.4V86.7l16.3-9.4
	V96.1z M108.1,86.9v18.8l-14,8.1l-2.3,1.3V96.3L108.1,86.9z M108.3,106.1l16.3,9.4l-16.3,9.4l-16.3-9.4L108.3,106.1z M125,115.7
	l16.3,9.4l-16.3,9.4l-16.3-9.4L125,115.7z M141.7,125.3l16.3,9.4l-16.3,9.4l-16.3-9.4L141.7,125.3z M158.3,134.9l16.3,9.4l-16.3,9.4
	l-16.3-9.4L158.3,134.9z M157.9,154l-16.3,9.4l-16.3-9.4l16.3-9.4L157.9,154z M141.3,163.6L125,173l-16.3-9.4l16.3-9.4L141.3,163.6z
	 M124.6,173.2l-16.3,9.4l-16.3-9.4l16.3-9.4L124.6,173.2z M108.1,182.9v18.8l-16.3-9.4v-18.8L108.1,182.9z M91.5,192.6v18.8
	L75.2,202v-18.8L91.5,192.6z M91.5,211.8v18.8l-16.3-9.4v-18.8L91.5,211.8z M91.9,212l16.3,9.4v18.8l-16.3-9.4V212z M108.5,221.7
	l16.3,9.4v18.8l-16.3-9.4V221.7z M125.2,231.1l16.3-9.4v18.8l-16.3,9.4V231.1z M141.5,240.9v18.8l-16.3,9.4l0-18.8L141.5,240.9z
	 M158.1,250.5v18.8l-16.3,9.4v-18.8L158.1,250.5z M158.3,269.7l16.3,9.4l-16.3,9.4l-16.3-9.4L158.3,269.7z M175,279.3l16.3,9.4
	l-16.3,9.4l-16.3-9.4L175,279.3z M174.6,298.3l-16.3,9.4l-16.3-9.4l16.3-9.4L174.6,298.3z M158.1,308v18.8l-16.3-9.4v-18.8
	L158.1,308z M141.5,317.7l0,18.8l-16.3-9.4l0-18.8L141.5,317.7z M124.8,346.3l-16.3,9.4v-18.8l16.3-9.4V346.3z M108.1,355.9
	l-16.3,9.4v-18.8l16.3-9.4V355.9z M91.5,365.5l-16.3,9.4v-18.8l16.3-9.4V365.5z M108.1,356.4v18.8l-16.3,9.4v-18.8L108.1,356.4z
	 M108.1,375.6v18.8l-16.3,9.4V385L108.1,375.6z M108.3,394.7l16.3,9.4l-16.3,9.4l-16.3-9.4L108.3,394.7z M125,404.4l16.3,9.4
	l-16.3,9.4l-16.3-9.4L125,404.4z M141.7,414l16.3,9.4l-16.3,9.4l-16.3-9.4L141.7,414z M158.3,423.6l16.3,9.4l-16.3,9.4l-16.3-9.4
	L158.3,423.6z M157.9,442.6l-16.3,9.4l-16.3-9.4l16.3-9.4L157.9,442.6z M141.3,452.3l-16.3,9.4l-16.3-9.4l16.3-9.4L141.3,452.3z
	 M124.6,461.9l-16.3,9.4l-16.3-9.4l16.3-9.4L124.6,461.9z M108.1,471.6v18.8L91.9,481v-18.8L108.1,471.6z M91.5,481.2V500l-16.3-9.4
	v-18.8L91.5,481.2z M91.5,500.5v18.8l-16.3-9.4v-18.8L91.5,500.5z M91.9,500.3v-18.8l16.3,9.4v18.8L91.9,500.3z M108.5,490.6v-18.8
	l16.3,9.4V500L108.5,490.6z M125.2,481.2l16.3-9.4v18.8l-16.3,9.4V481.2z M158.1,481.5v18.8l-16.3,9.4v-18.8L158.1,481.5z
	 M174.8,491.1v18.8l-16.3,9.4v-18.8L174.8,491.1z M191.5,500.7v18.8l-16.3,9.4v-18.8L191.5,500.7z M208.1,510.3v18.8l-16.3,9.4
	v-18.8L208.1,510.3z M208.5,529.1v-18.8l16.3,9.4v18.8L208.5,529.1z M225.2,519.5l0-18.8l16.3,9.4v18.8L225.2,519.5z M241.9,509.9
	v-18.8l16.3,9.4v18.8L241.9,509.9z M258.5,500.3v-18.8l16.3,9.4v18.8L258.5,500.3z M275.2,490.6v-18.8l16.3,9.4V500L275.2,490.6z
	 M291.9,481.2l16.3-9.4v18.8l-16.3,9.4V481.2z M324.8,481.5l0,18.8l-16.3,9.4v-18.8L324.8,481.5z M341.5,491.1v18.8l-16.3,9.4v-18.8
	L341.5,491.1z M358.1,500.7v18.8l-16.3,9.4v-18.8L358.1,500.7z M374.8,510.3v18.8l-16.3,9.4v-18.8L374.8,510.3z M375.2,529.1v-18.8
	l16.3,9.4v18.8L375.2,529.1z M391.9,519.5v-18.8l16.3,9.4v18.8L391.9,519.5z M408.5,509.9v-18.8l16.3,9.4v18.8L408.5,509.9z
	 M408.1,509.7l-16.3-9.4v-18.8l16.3,9.4V509.7z M391.5,500l-16.3-9.4v-18.8l16.3,9.4V500z M374.8,490.6l-16.3,9.4v-18.8l16.3-9.4
	V490.6z M358.5,480.8V462l16.3-9.4v18.8L358.5,480.8z M341.9,471.2v-18.8l16.3-9.4v18.8L341.9,471.2z M341.7,452l-16.3-9.4l16.3-9.4
	l16.3,9.4L341.7,452z M325,442.4l-16.3-9.4l16.3-9.4l16.3,9.4L325,442.4z M325.4,423.4l16.3-9.4l16.3,9.4l-16.3,9.4L325.4,423.4z
	 M358.5,423.3v-18.8l16.3,9.4v18.8L358.5,423.3z M358.5,404v-18.8l16.3,9.4l0,18.8L358.5,404z M375.2,375.4l16.3-9.4v18.8l-16.3,9.4
	V375.4z M391.9,365.8l16.3-9.4v18.8l-16.3,9.4V365.8z M408.5,356.1l16.3-9.4v18.8l-16.3,9.4V356.1z M391.9,365.3v-18.8l16.3-9.4
	v18.8L391.9,365.3z M391.9,346.1v-18.8l16.3-9.4v18.8L391.9,346.1z M391.7,326.9l-16.3-9.4l16.3-9.4l16.3,9.4L391.7,326.9z
	 M375,317.3l-16.3-9.4l16.3-9.4l16.3,9.4L375,317.3z M358.3,307.7l-16.3-9.4l16.3-9.4l16.3,9.4L358.3,307.7z M341.7,298.1l-16.3-9.4
	l16.3-9.4l16.3,9.4L341.7,298.1z M342.1,279.1l16.3-9.4l16.3,9.4l-16.3,9.4L342.1,279.1z M358.7,269.4L375,260l16.3,9.4l-16.3,9.4
	L358.7,269.4z M375.4,259.8l16.3-9.4l16.3,9.4l-16.3,9.4L375.4,259.8z M391.9,250.1v-18.8l16.3,9.4v18.8L391.9,250.1z M408.5,240.4
	v-18.8l16.3,9.4v18.8L408.5,240.4z M408.5,221.2v-18.8l16.3,9.4v18.8L408.5,221.2z M408.1,221l-16.3-9.4v-18.8l16.3,9.4V221z
	 M391.5,211.4l-16.3-9.4v-18.8l16.3,9.4V211.4z M374.8,202l-16.3,9.4v-18.8l16.3-9.4V202z M358.5,192.1v-18.8l16.3-9.4v18.8
	L358.5,192.1z M358.5,172.9v-18.8l16.3-9.4v18.8L358.5,172.9z M341.7,163.4l-16.3-9.4l16.3-9.4l16.3,9.4L341.7,163.4z M325,153.7
	l-16.3-9.4l16.3-9.4l16.3,9.4L325,153.7z M325.4,134.7l16.3-9.4l16.3,9.4l-16.3,9.4L325.4,134.7z M358.5,134.6v-18.8l16.3,9.4V144
	L358.5,134.6z M358.5,115.4V96.6l16.3,9.4v18.8L358.5,115.4z M375.2,86.7l16.3-9.4v18.8l-16.3,9.4V86.7z M391.9,77.1l16.3-9.4v18.8
	l-16.3,9.4V77.1z M408.5,67.5l16.3-9.4v18.8l-16.3,9.4V67.5z M391.9,76.6V57.8l16.3-9.4l0,18.8L391.9,76.6z M391.9,57.4V38.6
	l16.3-9.4V48L391.9,57.4z M375,47.9l-16.3-9.4l16.3-9.4l16.3,9.4L375,47.9z M358.1,38.6v18.8L341.9,48V29.2L358.1,38.6z M341.5,48.2
	V67l-16.3-9.4V38.8L341.5,48.2z M324.8,57.8v18.8l-16.3-9.4V48.5L324.8,57.8z M308.1,67.5v18.8l-16.3-9.4l0-18.8L308.1,67.5z
	 M291.5,76.9l-16.3,9.4V67.5l16.3-9.4V76.9z M258.5,76.6V57.8l16.3-9.4v18.8L258.5,76.6z M241.9,67l0-18.8l16.3-9.4v18.8L241.9,67z
	 M225.2,57.4V38.6l16.3-9.4V48L225.2,57.4z M208.3,47.9l-16.3-9.4l16.3-9.4l16.3,9.4L208.3,47.9z M191.5,38.6v18.8L175.2,48V29.2
	L191.5,38.6z M174.8,48.2V67l-16.3-9.4V38.8L174.8,48.2z M158.1,57.8v18.8l-16.3-9.4V48.5L158.1,57.8z M141.5,67.5l0,18.8l-16.3-9.4
	l0-18.8L141.5,67.5z M124.8,76.9l-16.3,9.4V67.5l16.3-9.4V76.9z M91.9,76.6V57.8l16.3-9.4v18.8L91.9,76.6z M75.2,67l0-18.8l16.3-9.4
	v18.8L75.2,67z M74.8,67.2l-16.3,9.4V57.8l16.3-9.4L74.8,67.2z M74.8,67.7v18.8l-16.3,9.4V77.1L74.8,67.7z M91.5,77.3v18.8
	l-16.3,9.4l0-18.8L91.5,77.3z M91.5,96.6v18.8l-16.3,9.4V106L91.5,96.6z M91.7,115.7l16.3,9.4l-16.3,9.4l-16.3-9.4L91.7,115.7z
	 M108.3,125.3l16.3,9.4l-16.3,9.4l-16.3-9.4L108.3,125.3z M125,134.9l16.3,9.4l-16.3,9.4l-16.3-9.4L125,134.9z M124.6,154l-16.3,9.4
	L92.1,154l16.3-9.4L124.6,154z M107.9,163.6L91.7,173l-16.3-9.4l16.3-9.4L107.9,163.6z M91.5,173.3v18.8l-16.3-9.4v-18.8L91.5,173.3
	z M74.8,182.9v18.8l-16.3-9.4l0-18.8L74.8,182.9z M74.8,202.2V221l-16.3-9.4v-18.8L74.8,202.2z M74.8,221.4v18.8l-16.3-9.4l0-18.8
	L74.8,221.4z M75.2,221.7l16.3,9.4v18.8l-16.3-9.4V221.7z M91.9,231.3l16.3,9.4v18.8l-16.3-9.4V231.3z M108.5,240.9l16.3,9.4l0,18.8
	l-16.3-9.4V240.9z M124.8,269.5v18.8l-16.3-9.4v-18.8L124.8,269.5z M125.2,269.5l16.3-9.4v18.8l-16.3,9.4V269.5z M141.7,279.3
	l16.3,9.4l-16.3,9.4l-16.3-9.4L141.7,279.3z M141.5,298.4v18.8l-16.3-9.4V289L141.5,298.4z M124.8,307.8l-16.3,9.4v-18.8l16.3-9.4
	V307.8z M124.8,308.3v18.8l-16.3,9.4v-18.8L124.8,308.3z M108.1,336.7l-16.3,9.4v-18.8l16.3-9.4V336.7z M91.5,346.3l-16.3,9.4
	l0-18.8l16.3-9.4V346.3z M74.8,355.9l-16.3,9.4v-18.8l16.3-9.4L74.8,355.9z M74.8,356.4v18.8l-16.3,9.4v-18.8L74.8,356.4z M91.5,366
	v18.8l-16.3,9.4v-18.8L91.5,366z M91.5,385.2V404l-16.3,9.4v-18.8L91.5,385.2z M91.7,404.4l16.3,9.4l-16.3,9.4l-16.3-9.4L91.7,404.4
	z M108.3,414l16.3,9.4l-16.3,9.4l-16.3-9.4L108.3,414z M125,423.6l16.3,9.4l-16.3,9.4l-16.3-9.4L125,423.6z M124.6,442.6l-16.3,9.4
	l-16.3-9.4l16.3-9.4L124.6,442.6z M107.9,452.3l-16.3,9.4l-16.3-9.4l16.3-9.4L107.9,452.3z M91.5,462v18.8l-16.3-9.4v-18.8L91.5,462
	z M74.8,471.6v18.8L58.5,481l0-18.8L74.8,471.6z M74.8,490.9v18.8l-16.3-9.4v-18.8L74.8,490.9z M74.8,510.1v18.8l-16.3-9.4l0-18.8
	L74.8,510.1z M75.2,510.3l16.3,9.4v18.8l-16.3-9.4V510.3z M91.9,519.5v-18.8l16.3,9.4v18.8L91.9,519.5z M108.5,509.9v-18.8l16.3,9.4
	l0,18.8L108.5,509.9z M125.2,500.5l16.3-9.4v18.8l-16.3,9.4V500.5z M158.1,500.7v18.8l-16.3,9.4v-18.8L158.1,500.7z M174.8,510.3
	v18.8l-16.3,9.4l0-18.8L174.8,510.3z M191.5,520v18.8l-14,8.1l-2.3,1.3v-18.8L191.5,520z M208.3,529.5l16.3,9.4l-16.3,9.4l-16.3-9.4
	L208.3,529.5z M225.2,538.7V520l16.3,9.4v18.8L225.2,538.7z M241.9,529.1v-18.8l16.3,9.4v18.8L241.9,529.1z M258.5,519.5v-18.8
	l16.3,9.4v18.8L258.5,519.5z M275.2,509.9v-18.8l16.3,9.4l0,18.8L275.2,509.9z M291.9,500.5l16.3-9.4v18.8l-16.3,9.4L291.9,500.5z
	 M324.8,500.7v18.8l-16.3,9.4v-18.8L324.8,500.7z M341.5,510.3v18.8l-16.3,9.4v-18.8L341.5,510.3z M358.1,520v18.8l-14,8.1l-2.3,1.3
	v-18.8L358.1,520z M375,529.5l16.3,9.4l-16.3,9.4l-16.3-9.4L375,529.5z M391.9,538.7V520l16.3,9.4v18.8L391.9,538.7z M408.5,529.1
	v-18.8l16.3,9.4v18.8L408.5,529.1z M425.2,519.5v-18.8l16.3,9.4v18.8L425.2,519.5z M425.2,500.3v-18.8l16.3,9.4v18.8L425.2,500.3z
	 M424.8,500l-16.3-9.4v-18.8l16.3,9.4V500z M408.1,490.4l-16.3-9.4l0-18.8l16.3,9.4V490.4z M391.5,480.8l-16.3-9.4l0-18.8l16.3,9.4
	L391.5,480.8z M375.2,452.1v-18.8l16.3,9.4v18.8L375.2,452.1z M374.8,452.1l-16.3,9.4v-18.8l16.3-9.4V452.1z M358.3,442.4l-16.3-9.4
	l16.3-9.4l16.3,9.4L358.3,442.4z M375.2,413.9l16.3-9.4v18.8l-16.3,9.4V413.9z M375.2,413.4l0-18.8l16.3-9.4V404L375.2,413.4z
	 M391.9,385l16.3-9.4l0,18.8l-16.3,9.4V385z M408.5,375.4l16.3-9.4v18.8l-16.3,9.4V375.4z M425.2,365.8l16.3-9.4v18.8l-16.3,9.4
	V365.8z M425.2,365.3v-18.8l16.3-9.4v18.8L425.2,365.3z M408.5,355.7v-18.8l16.3-9.4v18.8L408.5,355.7z M408.5,336.4v-18.8l16.3-9.4
	v18.8L408.5,336.4z M408.3,317.3l-16.3-9.4l16.3-9.4l16.3,9.4L408.3,317.3z M391.7,307.7l-16.3-9.4l16.3-9.4l16.3,9.4L391.7,307.7z
	 M375,298.1l-16.3-9.4l16.3-9.4l16.3,9.4L375,298.1z M375.4,279.1l16.3-9.4l16.3,9.4l-16.3,9.4L375.4,279.1z M392.1,269.4l16.3-9.4
	l16.3,9.4l-16.3,9.4L392.1,269.4z M424.4,268.8l-15.8-9.1v-18.8l16.3,9.4v18.8L424.4,268.8z M425.2,250.1v-18.8l16.3,9.4v18.8
	L425.2,250.1z M425.2,230.8V212l16.3,9.4v18.8L425.2,230.8z M425.2,211.6v-18.8l16.3,9.4V221L425.2,211.6z M424.8,211.4l-16.3-9.4
	v-18.8l16.3,9.4V211.4z M408.1,201.7l-16.3-9.4v-18.8l16.3,9.4V201.7z M391.5,192.1l-16.3-9.4v-18.8l16.3,9.4V192.1z M375.2,163.5
	v-18.8l16.3,9.4v18.8L375.2,163.5z M358.3,153.7l-16.3-9.4l16.3-9.4l16.3,9.4L358.3,153.7z M375.2,125.2l16.3-9.4v18.8l-16.3,9.4
	V125.2z M375.2,124.8V106l16.3-9.4v18.8L375.2,124.8z M391.9,96.3l16.3-9.4v18.8l-16.3,9.4V96.3z M408.5,86.7l16.3-9.4v18.8
	l-16.3,9.4V86.7z M425.2,77.1l16.3-9.4v18.8l-16.3,9.4V77.1z M425.2,76.6V57.8l16.3-9.4v18.8L425.2,76.6z M408.5,67V48.2l16.3-9.4
	v18.8L408.5,67z M408.5,47.8V29l16.3-9.4v18.8L408.5,47.8z M391.7,38.3l-16.3-9.4l16.3-9.4l16.3,9.4L391.7,38.3z M358.3,38.3
	l-16.3-9.4l16.3-9.4l16.3,9.4L358.3,38.3z M341.5,29v18.8l-16.3-9.4V19.6L341.5,29z M324.8,38.6v18.8L308.5,48V29.2L324.8,38.6z
	 M308.1,48.2V67l-16.3-9.4V38.8L308.1,48.2z M291.5,57.6L275.2,67V48.2l16.3-9.4V57.6z M258.5,57.4V38.6l16.3-9.4V48L258.5,57.4z
	 M241.9,47.8V29l16.3-9.4v18.8L241.9,47.8z M225,38.3l-16.3-9.4l16.3-9.4l16.3,9.4L225,38.3z M191.7,38.3l-16.3-9.4l16.3-9.4
	l16.3,9.4L191.7,38.3z M174.8,29v18.8l-16.3-9.4V19.6L174.8,29z M158.1,38.6v18.8L141.9,48l0-18.8L158.1,38.6z M141.5,48.2V67
	l-16.3-9.4V38.8L141.5,48.2z M124.8,57.6L108.5,67V48.2l16.3-9.4V57.6z M91.9,57.4V38.6l16.3-9.4V48L91.9,57.4z M75.2,47.8V29
	l16.3-9.4v18.8L75.2,47.8z M74.8,48l-16.3,9.4V38.6l16.3-9.4V48z M58.1,57.6L41.9,67V48.2l16.3-9.4V57.6z M58.1,58.1v18.8l-16.3,9.4
	l0-18.8L58.1,58.1z M58.1,77.3v18.8l-16.3,9.4V86.7L58.1,77.3z M74.8,86.9l0,18.8l-16.3,9.4V96.3L74.8,86.9z M74.8,106.2V125
	l-16.3,9.4v-18.8L74.8,106.2z M75,125.3l16.3,9.4L75,144.1l-16.3-9.4L75,125.3z M91.7,134.9l16.3,9.4l-16.3,9.4l-16.3-9.4
	L91.7,134.9z M91.3,154L75,163.4L58.7,154l16.3-9.4L91.3,154z M74.8,163.7v18.8l-16.3-9.4v-18.8L74.8,163.7z M58.1,173.3l0,18.8
	l-16.3-9.4l0-18.8L58.1,173.3z M58.1,192.6v18.8L41.9,202v-18.8L58.1,192.6z M58.1,211.8l0,18.8l-16.3-9.4l0-18.8L58.1,211.8z
	 M58.1,231.1v18.8l-16.3-9.4v-18.8L58.1,231.1z M58.5,231.3l16.3,9.4v18.8l-16.3-9.4V231.3z M75.2,240.9l16.3,9.4v18.8l-0.4-0.2
	l-15.8-9.1V240.9z M91.9,250.5l16.3,9.4v18.8l-16.3-9.4V250.5z M107.9,279.1l-16.3,9.4l-16.3-9.4l16.3-9.4L107.9,279.1z
	 M108.3,279.3l16.3,9.4l-16.3,9.4l-16.3-9.4L108.3,279.3z M107.9,298.3l-16.3,9.4l-16.3-9.4l16.3-9.4L107.9,298.3z M108.1,298.6
	v18.8l-16.3,9.4V308L108.1,298.6z M91.5,327.1l-16.3,9.4v-18.8l16.3-9.4V327.1z M74.8,336.7l-16.3,9.4v-18.8l16.3-9.4V336.7z
	 M58.1,346.3l-16.3,9.4v-18.8l16.3-9.4V346.3z M58.1,346.8v18.8l-16.3,9.4l0-18.8L58.1,346.8z M58.1,366v18.8l-16.3,9.4v-18.8
	L58.1,366z M74.8,375.6l0,18.8l-16.3,9.4V385L74.8,375.6z M74.8,394.9v18.8l-1.8,1.1L58.5,423v-18.8L74.8,394.9z M75,414l16.3,9.4
	L75,432.8l-16.3-9.4L75,414z M91.7,423.6l16.3,9.4l-16.3,9.4L75.4,433L91.7,423.6z M91.3,442.6L75,452l-16.3-9.4l16.3-9.4
	L91.3,442.6z M74.8,452.4v18.8l-16.3-9.4V443L74.8,452.4z M58.1,462l0,18.8l-16.3-9.4l0-18.8L58.1,462z M58.1,481.2V500l-16.3-9.4
	v-18.8L58.1,481.2z M58.1,500.5l0,18.8l-16.3-9.4l0-18.8L58.1,500.5z M58.1,519.7v18.8l-16.3-9.4v-18.8L58.1,519.7z M58.5,520
	l16.3,9.4v18.8l-16.3-9.4V520z M75.2,529.6l16.3,9.4v18.8l-0.4-0.2l-15.8-9.1V529.6z M91.9,538.7V520l16.3,9.4v18.8L91.9,538.7z
	 M108.5,529.1v-18.8l16.3,9.4v18.8L108.5,529.1z M125.2,519.7l16.3-9.4v18.8l-16.3,9.4V519.7z M158.1,520l0,18.8l-16.3,9.4v-18.8
	L158.1,520z M174.8,529.6v18.8l-16.3,9.4V539L174.8,529.6z M191.7,539.1l16.3,9.4l-16.3,9.4l-16.3-9.4L191.7,539.1z M225,539.1
	l16.3,9.4l-16.3,9.4l-16.3-9.4L225,539.1z M241.9,548.4v-18.8l16.3,9.4v18.8l-0.4-0.2L241.9,548.4z M258.5,538.7V520l16.3,9.4v18.8
	L258.5,538.7z M275.2,529.1v-18.8l16.3,9.4v18.8L275.2,529.1z M291.9,519.7l16.3-9.4v18.8l-16.3,9.4V519.7z M324.8,520v18.8
	l-16.3,9.4v-18.8L324.8,520z M341.5,529.6v18.8l-16.3,9.4V539L341.5,529.6z M358.3,539.1l16.3,9.4l-16.3,9.4l-16.3-9.4L358.3,539.1z
	 M391.7,539.1l16.3,9.4l-16.3,9.4l-16.3-9.4L391.7,539.1z M408.5,548.4v-18.8l16.3,9.4v18.8l-0.4-0.2L408.5,548.4z M425.2,538.7V520
	l16.3,9.4v18.8L425.2,538.7z M441.9,529.1v-18.8l16.3,9.4v18.8L441.9,529.1z M441.9,509.9v-18.8l16.3,9.4v18.8L441.9,509.9z
	 M441.9,490.6v-18.8l16.3,9.4V500L441.9,490.6z M441.5,490.4l-16.3-9.4v-18.8l16.3,9.4V490.4z M424.8,480.8l-16.3-9.4v-18.8
	l16.3,9.4V480.8z M408.1,471.2l-16.3-9.4V443l16.3,9.4V471.2z M392.1,442.6l16.3-9.4l16.3,9.4l-16.3,9.4L392.1,442.6z M391.7,442.4
	l-16.3-9.4l16.3-9.4l16.3,9.4L391.7,442.4z M392.1,423.4l16.3-9.4l16.3,9.4l-16.3,9.4L392.1,423.4z M406.3,414.7l-14.4,8.3v-18.8
	l16.3-9.4v18.8L406.3,414.7z M408.5,394.6l16.3-9.4V404l-16.3,9.4V394.6z M425.2,385l16.3-9.4v18.8l-16.3,9.4V385z M441.9,375.4
	l16.3-9.4v18.8l-16.3,9.4V375.4z M441.9,374.9v-18.8l16.3-9.4v18.8L441.9,374.9z M441.9,355.7v-18.8l16.3-9.4v18.8L441.9,355.7z
	 M425.2,346.1v-18.8l16.3-9.4v18.8L425.2,346.1z M425.2,326.8V308l16.3-9.4v18.8L425.2,326.8z M425,307.7l-16.3-9.4l16.3-9.4
	l16.3,9.4L425,307.7z M408.3,298.1l-16.3-9.4l16.3-9.4l16.3,9.4L408.3,298.1z M408.7,279.1l16.3-9.4l16.3,9.4l-16.3,9.4L408.7,279.1
	z M425.2,269.3v-18.8l16.3,9.4v18.8L425.2,269.3z M441.9,259.7v-18.8l16.3,9.4v18.8L441.9,259.7z M441.9,240.4v-18.8l16.3,9.4v18.8
	L441.9,240.4z M441.9,221.2v-18.8l16.3,9.4l0,18.8L441.9,221.2z M441.9,202v-18.8l16.3,9.4v18.8L441.9,202z M441.5,201.7l-16.3-9.4
	v-18.8l16.3,9.4V201.7z M424.8,192.1l-16.3-9.4v-18.8l16.3,9.4V192.1z M408.1,182.5l-16.3-9.4v-18.8l16.3,9.4V182.5z M392.1,154
	l16.3-9.4l16.3,9.4l-16.3,9.4L392.1,154z M391.7,153.7l-16.3-9.4l16.3-9.4l16.3,9.4L391.7,153.7z M392.1,134.7l16.3-9.4l16.3,9.4
	l-16.3,9.4L392.1,134.7z M391.9,134.4v-18.8l16.3-9.4V125L391.9,134.4z M408.5,106l16.3-9.4v18.8l-16.3,9.4V106z M425.2,96.3
	l16.3-9.4v18.8l-14,8.1l-2.3,1.3V96.3z M441.9,86.7l16.3-9.4v18.8l-16.3,9.4V86.7z M441.9,86.3V67.5l16.3-9.4v18.8L441.9,86.3z
	 M441.9,67V48.2l16.3-9.4v18.8L441.9,67z M425.2,57.4V38.6l16.3-9.4V48L425.2,57.4z M425.2,38.1V19.4l16.3-9.4v18.8L425.2,38.1z
	 M408.3,28.6l-16.3-9.4l16.3-9.4l16.3,9.4L408.3,28.6z M375,28.6l-16.3-9.4L375,9.8l16.3,9.4L375,28.6z M341.7,28.6l-16.3-9.4
	l16.3-9.4l16.3,9.4L341.7,28.6z M324.8,19.4v18.8l-16.3-9.4V10L324.8,19.4z M308.1,29v18.8l-16.3-9.4V19.6L308.1,29z M291.5,38.4
	l-16.3,9.4V29l16.3-9.4V38.4z M258.5,38.1V19.4l16.3-9.4v18.8L258.5,38.1z M241.7,28.6l-16.3-9.4l16.3-9.4l16.3,9.4L241.7,28.6z
	 M208.3,28.6l-16.3-9.4l16.3-9.4l16.3,9.4L208.3,28.6z M175,28.6l-16.3-9.4L175,9.8l16.3,9.4L175,28.6z M158.1,19.4v18.8l-16.3-9.4
	V10L158.1,19.4z M141.5,29l0,18.8l-16.3-9.4l0-18.8L141.5,29z M124.8,38.4l-16.3,9.4V29l16.3-9.4V38.4z M91.9,38.1V19.4l16.3-9.4
	v18.8L91.9,38.1z M75,28.6l-16.3-9.4L75,9.8l16.3,9.4L75,28.6z M74.6,28.9l-16.3,9.4l-16.3-9.4l16.3-9.4L74.6,28.9z M57.9,38.5
	l-16.3,9.4l-16.3-9.4l16.3-9.4L57.9,38.5z M41.5,48.2V67l-16.3-9.4V38.8L41.5,48.2z M41.5,67.5l0,18.8l-16.3-9.4V58.1L41.5,67.5z
	 M41.5,86.7v18.8l-16.3-9.4V77.3L41.5,86.7z M41.5,106l0,18.8l-16.3-9.4V96.6L41.5,106z M41.9,106l16.3-9.4v18.8l-16.3,9.4L41.9,106
	z M58.1,115.8v18.8L41.9,144v-18.8L58.1,115.8z M58.3,134.9l16.3,9.4l-16.3,9.4l-16.3-9.4L58.3,134.9z M58.1,154.1v18.8l-16.3-9.4
	v-18.8L58.1,154.1z M41.5,182.7l-16.3,9.4v-18.8l16.3-9.4V182.7z M41.5,183.2V202l-16.3,9.4v-18.8L41.5,183.2z M41.5,202.4v18.8
	l-16.3,9.4v-18.8L41.5,202.4z M41.5,221.7v18.8l-16.3,9.4v-18.8L41.5,221.7z M41.7,240.8l16.3,9.4l-16.3,9.4l-16.3-9.4L41.7,240.8z
	 M58.3,250.4l16.3,9.4l-16.3,9.4l-16.3-9.4L58.3,250.4z M75,260l16.3,9.4L75,278.8l-16.3-9.4L75,260z M74.6,279.1l-16.3,9.4
	l-16.3-9.4l16.3-9.4L74.6,279.1z M75,279.3l16.3,9.4L75,298.1l-16.3-9.4L75,279.3z M74.6,298.3l-16.3,9.4l-16.3-9.4l16.3-9.4
	L74.6,298.3z M75,298.5l16.3,9.4L75,317.3l-16.3-9.4L75,298.5z M74.6,317.5l-16.3,9.4l-16.3-9.4l16.3-9.4L74.6,317.5z M57.9,327.2
	l-16.3,9.4l-16.3-9.4l16.3-9.4L57.9,327.2z M41.5,336.9v18.8l-16.3-9.4v-18.8L41.5,336.9z M41.5,356.1l0,18.8l-16.3-9.4v-18.8
	L41.5,356.1z M41.5,375.4v18.8l-16.3-9.4V366L41.5,375.4z M41.5,394.6l0,18.8L25.2,404v-18.8L41.5,394.6z M41.9,394.6l16.3-9.4V404
	l-16.3,9.4L41.9,394.6z M58.1,404.5v18.8l-16.3,9.4v-18.8L58.1,404.5z M58.3,423.6l16.3,9.4l-16.3,9.4L42.1,433L58.3,423.6z
	 M58.1,442.7v18.8l-16.3-9.4v-18.8L58.1,442.7z M41.5,471.4l-16.3,9.4V462l16.3-9.4V471.4z M41.5,471.8v18.8L25.2,500v-18.8
	L41.5,471.8z M41.5,491.1v18.8l-16.3,9.4v-18.8L41.5,491.1z M41.5,510.3v18.8l-16.3,9.4v-18.8L41.5,510.3z M41.7,529.5l16.3,9.4
	l-16.3,9.4l-16.3-9.4L41.7,529.5z M58.3,539.1l16.3,9.4l-16.3,9.4l-16.3-9.4L58.3,539.1z M75,548.7l16.3,9.4L75,567.5l-16.3-9.4
	L75,548.7z M91.9,558v-18.8l16.3,9.4v18.8L91.9,558z M108.5,548.4v-18.8l16.3,9.4l0,18.8L108.5,548.4z M125.2,539l16.3-9.4v18.8
	l-16.3,9.4L125.2,539z M158.1,539.2V558l-16.3,9.4v-18.8L158.1,539.2z M175,548.7l16.3,9.4l-16.3,9.4l-16.3-9.4L175,548.7z
	 M208.3,548.7l16.3,9.4l-16.3,9.4l-16.3-9.4L208.3,548.7z M241.7,548.7l16.3,9.4l-16.3,9.4l-16.3-9.4L241.7,548.7z M258.5,558v-18.8
	l16.3,9.4v18.8L258.5,558z M275.2,548.4v-18.8l16.3,9.4v18.8L275.2,548.4z M291.9,539l16.3-9.4v18.8l-16.3,9.4V539z M324.8,539.2
	V558l-16.3,9.4v-18.8L324.8,539.2z M341.7,548.7l16.3,9.4l-16.3,9.4l-16.3-9.4L341.7,548.7z M375,548.7l16.3,9.4l-16.3,9.4
	l-16.3-9.4L375,548.7z M408.3,548.7l16.3,9.4l-16.3,9.4l-16.3-9.4L408.3,548.7z M425.2,558v-18.8l16.3,9.4v18.8L425.2,558z
	 M441.9,548.4v-18.8l16.3,9.4l0,18.8L441.9,548.4z M458.5,539l16.3-9.4v18.8l-16.3,9.4V539z M458.5,538.5v-18.8l16.3-9.4v18.8
	L458.5,538.5z M458.5,519.3v-18.8l16.3-9.4v18.8L458.5,519.3z M458.5,500v-18.8l16.3-9.4v18.8L458.5,500z M458.3,480.9l-16.3-9.4
	l16.3-9.4l16.3,9.4L458.3,480.9z M441.7,471.3l-16.3-9.4l16.3-9.4l16.3,9.4L441.7,471.3z M425,461.7l-16.3-9.4l16.3-9.4l16.3,9.4
	L425,461.7z M425.4,442.6l16.3-9.4l16.3,9.4l-16.3,9.4L425.4,442.6z M425,442.4l-16.3-9.4l16.3-9.4l16.3,9.4L425,442.4z
	 M425.4,423.4l16.3-9.4l16.3,9.4l-16.3,9.4L425.4,423.4z M425,423.2l-16.3-9.4l16.3-9.4l16.3,9.4L425,423.2z M425.4,404.1l16.3-9.4
	l16.3,9.4l-16.3,9.4L425.4,404.1z M442.1,394.5l16.3-9.4l16.3,9.4l-16.3,9.4L442.1,394.5z M458.5,384.8V366l16.3,9.4v18.8
	L458.5,384.8z M458.5,365.5v-18.8l16.3,9.4l0,18.8L458.5,365.5z M458.5,346.3v-18.8l16.3,9.4v18.8L458.5,346.3z M458.5,327.1v-18.8
	l16.3,9.4v18.8L458.5,327.1z M458.1,327.1l-16.3,9.4v-18.8l16.3-9.4V327.1z M441.9,317.2v-18.8l16.3-9.4v18.8L441.9,317.2z
	 M441.7,298.1l-16.3-9.4l16.3-9.4l16.3,9.4L441.7,298.1z M441.9,278.9v-18.8l16.3,9.4v18.8L441.9,278.9z M458.5,250.3l16.3-9.4v18.8
	l-16.3,9.4V250.3z M458.5,249.8v-18.8l16.3-9.4v18.8L458.5,249.8z M458.5,230.6v-18.8l16.3-9.4v18.8L458.5,230.6z M458.5,211.4
	v-18.8l16.3-9.4V202L458.5,211.4z M458.3,192.2l-16.3-9.4l16.3-9.4l16.3,9.4L458.3,192.2z M441.7,182.6l-16.3-9.4l16.3-9.4l16.3,9.4
	L441.7,182.6z M425,173l-16.3-9.4l16.3-9.4l16.3,9.4L425,173z M425.4,154l16.3-9.4l16.3,9.4l-16.3,9.4L425.4,154z M425,153.7
	l-16.3-9.4l16.3-9.4l16.3,9.4L425,153.7z M425.4,134.7l16.3-9.4l16.3,9.4l-16.3,9.4L425.4,134.7z M425,134.5l-16.3-9.4l16.3-9.4
	l16.3,9.4L425,134.5z M425.4,115.5l16.3-9.4l16.3,9.4l-16.3,9.4L425.4,115.5z M442.1,105.8l16.3-9.4l16.3,9.4l-16.3,9.4L442.1,105.8
	z M458.5,96.1V77.3l16.3,9.4v18.8L458.5,96.1z M458.5,76.9V58.1l16.3,9.4v18.8L458.5,76.9z M458.5,57.6V38.8l16.3,9.4V67L458.5,57.6
	z M458.5,38.4V19.6l16.3,9.4l0,18.8L458.5,38.4z M458.1,38.4l-16.3,9.4V29l16.3-9.4V38.4z M425,0.2l16.3,9.4L425,19l-16.3-9.4
	L425,0.2z M391.7,0.2l16.3,9.4L391.7,19l-16.3-9.4L391.7,0.2z M358.3,0.2l16.3,9.4L358.3,19l-16.3-9.4L358.3,0.2z M325,0.2l16.3,9.4
	L325,19l-16.3-9.4L325,0.2z M308.1,9.7v18.8l-16.3-9.4V0.3L308.1,9.7z M291.5,0.3v18.8l-16.3,9.4V9.7L291.5,0.3z M258.3,0.2
	l16.3,9.4L258.3,19l-16.3-9.4L258.3,0.2z M225,0.2l16.3,9.4L225,19l-16.3-9.4L225,0.2z M191.7,0.2l16.3,9.4L191.7,19l-16.3-9.4
	L191.7,0.2z M158.3,0.2l16.3,9.4L158.3,19l-16.3-9.4L158.3,0.2z M141.5,9.7v18.8l-16.3-9.4V0.3L141.5,9.7z M124.8,0.3v18.8
	l-16.3,9.4V9.7L124.8,0.3z M91.7,0.2l16.3,9.4L91.7,19L75.4,9.6L91.7,0.2z M58.3,0.2l16.3,9.4L58.3,19L42.1,9.6L58.3,0.2z M8.7,9.6
	L25,0.2l16.3,9.4L25,19L8.7,9.6z M41.7,9.8l16.3,9.4l-16.3,9.4l-16.3-9.4L41.7,9.8z M8.7,28.9L25,19.5l16.3,9.4L25,38.3L8.7,28.9z
	 M8.5,48V29.2l16.3,9.4v18.8L8.5,48z M8.5,67.2V48.5l16.3,9.4v18.8L8.5,67.2z M8.5,86.5V67.7l16.3,9.4v18.8L8.5,86.5z M8.5,105.7
	V86.9l16.3,9.4v18.8L8.5,105.7z M8.5,125v-18.8l16.3,9.4v18.8L8.5,125z M25.2,134.6v-18.8l16.3,9.4V144L25.2,134.6z M8.7,144.3
	l16.3-9.4l16.3,9.4L25,153.7L8.7,144.3z M41.5,144.7v18.8l-16.3,9.4v-18.8L41.5,144.7z M8.5,163.7l16.3-9.4v18.8l-16.3,9.4V163.7z
	 M8.5,182.9l16.3-9.4v18.8l-16.3,9.4V182.9z M8.5,202.2l16.3-9.4v18.8L8.5,221V202.2z M8.5,221.4l16.3-9.4v18.8l-16.3,9.4V221.4z
	 M8.5,240.7l16.3-9.4v18.8l-16.3,9.4V240.7z M8.7,259.8l16.3-9.4l16.3,9.4L25,269.2L8.7,259.8z M41.7,260l16.3,9.4l-16.3,9.4
	l-16.3-9.4L41.7,260z M8.7,279.1l16.3-9.4l16.3,9.4L25,288.4L8.7,279.1z M41.7,279.3l16.3,9.4l-16.3,9.4l-16.3-9.4L41.7,279.3z
	 M8.7,298.3l16.3-9.4l16.3,9.4L25,307.7L8.7,298.3z M41.7,298.5l16.3,9.4l-16.3,9.4l-16.3-9.4L41.7,298.5z M8.7,317.5l16.3-9.4
	l16.3,9.4L25,326.9L8.7,317.5z M8.5,336.7v-18.8l16.3,9.4v18.8L8.5,336.7z M8.5,355.9v-18.8l16.3,9.4v18.8L8.5,355.9z M8.5,375.2
	v-18.8l16.3,9.4v18.8L8.5,375.2z M8.5,394.4v-18.8l16.3,9.4v18.8L8.5,394.4z M8.5,413.7v-18.8l16.3,9.4V423L8.5,413.7z M25.2,423.3
	v-18.8l16.3,9.4v18.8L25.2,423.3z M8.7,433l16.3-9.4l16.3,9.4L25,442.4L8.7,433z M41.5,433.4v18.8l-16.3,9.4v-18.8L41.5,433.4z
	 M8.5,452.4l16.3-9.4v18.8l-16.3,9.4V452.4z M8.5,471.6l16.3-9.4V481l-16.3,9.4V471.6z M8.5,490.9l16.3-9.4v18.8l-16.3,9.4V490.9z
	 M8.5,510.1l16.3-9.4v18.8l-16.3,9.4V510.1z M8.5,529.4l16.3-9.4v18.8l-14,8.1l-2.3,1.3V529.4z M8.7,548.5l16.3-9.4l16.3,9.4
	L25,557.9L8.7,548.5z M41.7,548.7l16.3,9.4l-16.3,9.4l-16.3-9.4L41.7,548.7z M25,577.1l-16.3-9.4l16.3-9.4l16.3,9.4L25,577.1z
	 M58.3,577.1l-16.3-9.4l16.3-9.4l16.3,9.4L58.3,577.1z M91.7,577.1l-16.3-9.4l16.3-9.4l16.3,9.4L91.7,577.1z M108.5,567.6v-18.8
	l16.3,9.4V577L108.5,567.6z M125.2,577v-18.8l16.3-9.4v18.8L125.2,577z M158.3,577.1l-16.3-9.4l16.3-9.4l16.3,9.4L158.3,577.1z
	 M191.7,577.1l-16.3-9.4l16.3-9.4l16.3,9.4L191.7,577.1z M225,577.1l-16.3-9.4l16.3-9.4l16.3,9.4L225,577.1z M258.3,577.1l-16.3-9.4
	l16.3-9.4l16.3,9.4L258.3,577.1z M275.2,567.6v-18.8l16.3,9.4V577L275.2,567.6z M291.9,577v-18.8l16.3-9.4v18.8L291.9,577z
	 M325,577.1l-16.3-9.4l16.3-9.4l16.3,9.4L325,577.1z M358.3,577.1l-16.3-9.4l16.3-9.4l16.3,9.4L358.3,577.1z M391.7,577.1l-16.3-9.4
	l16.3-9.4l16.3,9.4L391.7,577.1z M425,577.1l-16.3-9.4l16.3-9.4l16.3,9.4L425,577.1z M441.9,567.6v-18.8l16.3,9.4V577L441.9,567.6z
	 M458.5,577v-18.8l16.3-9.4v18.8L458.5,577z M491.5,558l-16.3,9.4v-18.8l16.3-9.4V558z M491.5,538.7l-16.3,9.4v-18.8l16.3-9.4V538.7
	z M491.5,519.5l-16.3,9.4v-18.8l16.3-9.4L491.5,519.5z M491.5,500.3l-16.3,9.4v-18.8l16.3-9.4V500.3z M491.5,481l-16.3,9.4v-18.8
	l16.3-9.4V481z M491.3,461.9l-16.3,9.4l-16.3-9.4l16.3-9.4L491.3,461.9z M458.3,461.7l-16.3-9.4l16.3-9.4l16.3,9.4L458.3,461.7z
	 M491.3,442.6L475,452l-16.3-9.4l16.3-9.4L491.3,442.6z M458.3,442.4l-16.3-9.4l16.3-9.4l16.3,9.4L458.3,442.4z M491.3,423.4
	l-16.3,9.4l-16.3-9.4L475,414L491.3,423.4z M458.3,423.2l-16.3-9.4l16.3-9.4l16.3,9.4L458.3,423.2z M491.3,404.1l-16.3,9.4
	l-16.3-9.4l16.3-9.4L491.3,404.1z M491.5,385v18.8l-16.3-9.4v-18.8L491.5,385z M491.5,365.8v18.8l-16.3-9.4l0-18.8L491.5,365.8z
	 M491.5,346.5v18.8l-16.3-9.4v-18.8L491.5,346.5z M491.5,327.3v18.8l-16.3-9.4v-18.8L491.5,327.3z M491.5,308v18.8l-16.3-9.4v-18.8
	L491.5,308z M474.8,298.4v18.8l-16.3-9.4V289L474.8,298.4z M491.3,288.7l-16.3,9.4l-16.3-9.4l16.3-9.4L491.3,288.7z M458.5,288.3
	v-18.8l16.3-9.4v18.8L458.5,288.3z M491.5,269.3l-16.3,9.4v-18.8l16.3-9.4V269.3z M491.5,250.1l-16.3,9.4v-18.8l16.3-9.4V250.1z
	 M491.5,230.8l-16.3,9.4v-18.8l16.3-9.4L491.5,230.8z M491.5,211.6l-16.3,9.4v-18.8l16.3-9.4V211.6z M491.5,192.3l-16.3,9.4v-18.8
	l16.3-9.4V192.3z M491.3,173.2l-16.3,9.4l-16.3-9.4l16.3-9.4L491.3,173.2z M458.3,173l-16.3-9.4l16.3-9.4l16.3,9.4L458.3,173z
	 M491.3,154l-16.3,9.4l-16.3-9.4l16.3-9.4L491.3,154z M458.3,153.7l-16.3-9.4l16.3-9.4l16.3,9.4L458.3,153.7z M491.3,134.7
	l-16.3,9.4l-16.3-9.4l16.3-9.4L491.3,134.7z M458.3,134.5l-16.3-9.4l16.3-9.4l16.3,9.4L458.3,134.5z M491.3,115.5l-16.3,9.4
	l-16.3-9.4l16.3-9.4L491.3,115.5z M491.5,96.3v18.8l-16.3-9.4V86.9L491.5,96.3z M491.5,77.1v18.8l-16.3-9.4V67.7L491.5,77.1z
	 M491.5,57.8v18.8l-16.3-9.4V48.5L491.5,57.8z M491.5,38.6v18.8L475.2,48l0-18.8L491.5,38.6z M491.5,19.4v18.8l-16.3-9.4V10
	L491.5,19.4z M474.8,9.7v18.8l-16.3-9.4V0.3L474.8,9.7z"/>
</svg>
