<?xml version="1.0" encoding="utf-8"?>
<!-- Generator: Adobe Illustrator 18.0.0, SVG Export Plug-In . SVG Version: 6.00 Build 0)  -->
<!DOCTYPE svg PUBLIC "-//W3C//DTD SVG 1.1//EN" "http://www.w3.org/Graphics/SVG/1.1/DTD/svg11.dtd">
<svg version="1.1" id="Ebene_1" xmlns="http://www.w3.org/2000/svg" xmlns:xlink="http://www.w3.org/1999/xlink" x="0px" y="0px"
	 viewBox="0 0 500 112.6" enable-background="new 0 0 500 112.6" xml:space="preserve">
<g>
	<g>
		<path fill="#FFFFFF" d="M153.4,64.9h2.4c0.8,0,1.5-0.3,2-0.9c0.5-0.6,0.6-1.4,0.5-2.2l-7.9-40.9c-0.3-1.1-1.3-1.9-2.4-1.9h-1
			c-1,0-2,0.7-2.3,1.6L134,50.8l-10.9-30.2c-0.3-0.9-1.3-1.6-2.4-1.6h-1c-1.1,0-2.2,0.8-2.5,2l-7.8,40.8c-0.2,0.9,0,1.7,0.4,2.3
			c0.5,0.6,1.2,0.9,2,0.9h2.4c1.2,0,2.3-0.9,2.5-2l4.5-26.5l9.7,27.5c0.3,1,1.5,1.6,2.4,1.6h1.1c0.9,0,2-0.6,2.4-1.6l9.6-27.5
			L151,63C151.3,64.1,152.3,64.9,153.4,64.9z"/>
		<path fill="#FFFFFF" d="M185,64.3c7.3-0.9,12.7-4.5,15-6.8c1.5-1.4,0.9-2,0.1-2.8c-0.7-0.8-1.4-1.5-2.1-2.2
			c-1-1.1-1.6-0.5-2.9,0.6c-2.3,1.8-5.7,3.9-10.1,4.5c-7.5,0.9-14.6-5-15.9-12.1l30.6-3.8c1-0.1,1.7-1,1.7-2c0-0.8,0-2.2-0.1-2.9
			c-1.4-11.2-10.5-18.5-21.6-17.1c-12.9,1.6-19.6,12.9-18.1,24.9C162.9,56.8,172.1,65.9,185,64.3z M180.3,26.2
			c6.5-0.8,12.3,4.1,13.3,10.2l-25.3,3.1C168.3,32.8,173.2,27,180.3,26.2z"/>
		<path fill="#FFFFFF" d="M221.7,38.4c-5.2-2.2-7.4-4.3-7.4-7.3c0-2,1.5-5.3,7-5.3c1.4,0,3.7,0.4,7.3,2.6c1.6,0.9,3,0.5,4-1l0.7-1.2
			c0.6-1,0.6-1.9,0.4-2.4c-0.2-0.8-0.9-1.4-1.2-1.5c-0.2-0.1-4.9-3.4-11.2-3.4c-10.5,0-14.3,7.3-14.3,12.2c0,8.2,5.2,11.1,11.6,13.9
			c7.2,3,9.8,5.2,9.8,8.3c0,3-2.9,5.3-6.8,5.3c-4,0-7.5-2.6-9.4-4.3c-0.5-0.5-1.1-0.7-1.7-0.7c-1.2,0-1.9,0.8-2.4,1.4
			c-0.2,0.2-0.3,0.4-0.5,0.6l-0.5,0.7c-1.3,2.1,0.1,3.4,0.6,3.8c1,0.9,6.2,5.3,13.8,5.3c8.1,0,14.5-5.4,14.5-12.3
			C236,44.9,229.5,41.6,221.7,38.4z"/>
		<path fill="#FFFFFF" d="M244,64.9h2.4c1.4,0,2.5-1.1,2.5-2.5v-17h21.9v17c0,1.4,1.1,2.5,2.6,2.5h2.4c1.4,0,2.5-1.2,2.5-2.5V22.1
			c0-1.4-1.2-2.5-2.5-2.5h-2.4c-1.4,0-2.6,1.1-2.6,2.5v16.4h-21.9V22.1c0-1.4-1.1-2.5-2.5-2.5H244c-1.4,0-2.5,1.2-2.5,2.5v40.3
			C241.5,63.7,242.6,64.9,244,64.9z"/>
		<path fill="#FFFFFF" d="M303.4,63.7V27.8h9.2c1.4,0,2.6-1.1,2.6-2.6v-1.8c0-1.4-1.1-2.6-2.6-2.6h-25.8c-1.4,0-2.5,1.1-2.5,2.6v1.8
			c0,1.4,1.1,2.6,2.5,2.6h9.2v35.9c0,1.4,1.2,2.5,2.6,2.5h2.3C302.2,66.3,303.4,65.1,303.4,63.7z"/>
		<path fill="#FFFFFF" d="M322.4,66.3h2.4c1.4,0,2.6-1.2,2.6-2.5V23.4c0-1.4-1.2-2.6-2.6-2.6h-2.4c-1.4,0-2.5,1.2-2.5,2.6v40.3
			C319.8,65.1,321,66.3,322.4,66.3z"/>
		<path fill="#FFFFFF" d="M379.7,66.3c0.8,0,1.5-0.3,2-0.9c0.5-0.6,0.6-1.4,0.5-2.2l-7.9-40.9c-0.3-1.1-1.3-1.9-2.4-1.9h-1
			c-1,0-2,0.7-2.3,1.6l-10.7,30.3L347,21.9c-0.3-0.9-1.3-1.6-2.4-1.6h-1c-1.1,0-2.2,0.8-2.5,2l-7.8,40.8c-0.2,0.9,0,1.7,0.4,2.3
			c0.5,0.6,1.2,0.9,2,0.9h2.4c1.2,0,2.3-0.9,2.5-2l4.5-26.5l9.7,27.5c0.3,1,1.5,1.6,2.4,1.6h1.1c0.9,0,2-0.6,2.4-1.6l9.6-27.5
			l4.6,26.6c0.3,1.1,1.4,1.9,2.4,1.9H379.7z"/>
		<path fill="#FFFFFF" d="M428.2,64.9c0.5-0.7,0.5-1.6,0.1-2.4l-18.4-41c-0.5-0.9-1.3-1.4-2.3-1.4H407c-1,0-1.8,0.5-2.3,1.5
			l-18.5,40.9c-0.4,0.8-0.3,1.7,0.1,2.4c0.5,0.7,1.3,1.1,2.2,1.1h2.4c1.2,0,2-0.8,2.3-1.5l4.1-9.2h19.8l4.1,9.2
			c0.3,0.8,1.1,1.5,2.3,1.5h2.4C426.9,66.1,427.7,65.7,428.2,64.9z M414.2,48.8h-13.9l7-15.7c1.1,2.6,2.3,5.1,3.4,7.7
			C411.9,43.5,413,46.1,414.2,48.8z"/>
		<path fill="#FFFFFF" d="M451.9,20.7h-25.8c-1.4,0-2.5,1.1-2.5,2.5V25c0,1.4,1.1,2.6,2.5,2.6h9.2v36c0,1.4,1.2,2.6,2.6,2.6h2.3
			c1.4,0,2.6-1.2,2.6-2.6v-36h9.2c1.4,0,2.6-1.1,2.6-2.6v-1.8C454.5,21.9,453.3,20.7,451.9,20.7z"/>
		<path fill="#FFFFFF" d="M478.7,64.1c7.3-0.9,12.7-4.5,15-6.8c1.5-1.4,0.9-1.9,0.1-2.8c-0.7-0.8-1.4-1.5-2.1-2.2
			c-1-1.1-1.6-0.5-2.9,0.6c-2.3,1.8-5.7,3.9-10.1,4.5c-7.5,0.9-14.6-5-15.9-12.1l30.6-3.8c1-0.1,1.7-1,1.7-2c0-0.8,0-2.1-0.1-2.9
			c-1.4-11.2-10.5-18.5-21.6-17.1c-12.9,1.6-19.6,12.9-18.1,24.9C456.6,56.6,465.9,65.7,478.7,64.1z M474,26
			c6.5-0.8,12.3,4.1,13.3,10.2l-25.3,3.1C462,32.6,466.9,26.9,474,26z"/>
		<path fill="#FFFFFF" d="M112.8,76h-1c-0.2,0-0.5,0.2-0.5,0.5V93c0,0.3,0.2,0.5,0.5,0.5h1c0.2,0,0.5-0.2,0.5-0.5V76.5
			C113.3,76.2,113.1,76,112.8,76z"/>
		<path fill="#FFFFFF" d="M131.5,76h-0.9c-0.3,0-0.5,0.2-0.5,0.5v13.3c0,0,0,0,0,0l-11.2-14h-0.6c-0.2,0-0.5,0.2-0.5,0.4V93
			c0,0.3,0.2,0.5,0.5,0.5h0.9c0.3,0,0.5-0.2,0.5-0.5V79.4h0L131,93.7h0.4c0.2,0,0.5-0.2,0.5-0.4V76.5C131.9,76.2,131.7,76,131.5,76z
			"/>
		<path fill="#FFFFFF" d="M140.6,83.7c-2.1-0.9-3.4-1.8-3.4-3.5c0-1,0.8-2.7,3.4-2.7c1.5,0,3.1,1,3.3,1.1c0.4,0.2,0.6,0.1,0.9-0.2
			c0.1-0.1,0.2-0.3,0.3-0.5c0.3-0.5,0-0.8-0.1-0.8c0,0-1.8-1.3-4.3-1.3c-4,0-5.3,2.7-5.3,4.4c0,2.8,1.6,4,4.4,5.2
			c2.9,1.2,4.4,2.2,4.4,3.9c0,1.5-1.3,2.7-3.3,2.7c-2.2,0-4-1.7-4.2-1.9c-0.3-0.3-0.6-0.1-0.9,0.2c-0.1,0.1-0.3,0.3-0.4,0.5
			c-0.3,0.5-0.1,0.7,0.1,0.8c0.3,0.3,2.3,2,5.3,2c2.9,0,5.4-1.9,5.4-4.5C146.1,86.3,143.9,85,140.6,83.7z"/>
		<path fill="#FFFFFF" d="M158.2,77.2v-0.7c0-0.3-0.2-0.5-0.5-0.5h-10.6c-0.3,0-0.5,0.2-0.5,0.5v0.7c0,0.3,0.2,0.5,0.5,0.5h4.3V93
			c0,0.3,0.2,0.5,0.5,0.5h0.9c0.2,0,0.5-0.2,0.5-0.5V77.7h4.3C158,77.7,158.2,77.4,158.2,77.2z"/>
		<path fill="#FFFFFF" d="M165.3,75.7H165c-0.2,0-0.3,0.1-0.4,0.3L157,92.8c-0.1,0.3,0,0.6,0.4,0.6h1c0.2,0,0.4-0.1,0.4-0.3l1.8-4.1
			h8.8l1.8,4.1c0,0.1,0.2,0.3,0.4,0.3h1c0.4,0,0.6-0.3,0.4-0.6L165.7,76C165.6,75.9,165.5,75.7,165.3,75.7z M161.4,87.5l3.6-8.2h0.2
			c1.2,2.7,2.4,5.5,3.6,8.2H161.4z"/>
		<path fill="#FFFFFF" d="M189.1,76h-0.9c-0.3,0-0.5,0.2-0.5,0.5v13.3c0,0,0,0,0,0l-11.2-14h-0.6c-0.2,0-0.5,0.2-0.5,0.4V93
			c0,0.3,0.2,0.5,0.5,0.5h0.9c0.3,0,0.5-0.2,0.5-0.5V79.4h0l11.4,14.3h0.4c0.2,0,0.5-0.2,0.5-0.4V76.5C189.5,76.2,189.3,76,189.1,76
			z"/>
		<path fill="#FFFFFF" d="M202.7,76h-10.6c-0.3,0-0.5,0.2-0.5,0.5v0.7c0,0.3,0.2,0.5,0.5,0.5h4.3V93c0,0.3,0.2,0.5,0.5,0.5h0.9
			c0.2,0,0.5-0.2,0.5-0.5V77.7h4.3c0.3,0,0.5-0.2,0.5-0.5v-0.7C203.2,76.2,203,76,202.7,76z"/>
		<path fill="#FFFFFF" d="M216.2,76h-5.5c-0.3,0-0.5,0.2-0.5,0.5V93c0,0.3,0.2,0.5,0.5,0.5h0.9c0.2,0,0.5-0.2,0.5-0.5v-5.9h4.1
			c3,0,5.6-2.5,5.6-5.6C221.8,78.5,219.3,76,216.2,76z M216.1,85.3h-4v-7.4h4c2,0,3.8,1.5,3.8,3.6C219.8,83.6,218.1,85.3,216.1,85.3
			z"/>
		<path fill="#FFFFFF" d="M234.7,76h-9.8c-0.3,0-0.5,0.2-0.5,0.5V93c0,0.3,0.2,0.5,0.5,0.5h9.8c0.3,0,0.5-0.2,0.5-0.5v-0.7
			c0-0.2-0.2-0.5-0.5-0.5h-8.4v-6.4h7.2c0.2,0,0.5-0.2,0.5-0.5v-0.7c0-0.2-0.2-0.5-0.5-0.5h-7.2v-6.1h8.4c0.3,0,0.5-0.2,0.5-0.5
			v-0.7C235.2,76.2,235,76,234.7,76z"/>
		<path fill="#FFFFFF" d="M250.9,81.3c0-3-2.4-5.3-5.4-5.3H239c-0.3,0-0.5,0.2-0.5,0.5V93c0,0.3,0.2,0.5,0.5,0.5h1
			c0.2,0,0.5-0.2,0.5-0.5v-6.4h4.8l3.3,6.6c0.1,0.1,0.2,0.2,0.4,0.2h1.3c0.4,0,0.6-0.4,0.4-0.7l-3.4-6.3
			C249.4,85.5,250.9,83.6,250.9,81.3z M245.4,85h-4.8v-7.2h4.8c1.9,0,3.6,1.6,3.6,3.5C249,83.4,247.3,85,245.4,85z"/>
		<path fill="#FFFFFF" d="M264.7,76h-9.8c-0.3,0-0.5,0.2-0.5,0.5V93c0,0.3,0.2,0.5,0.5,0.5h1c0.2,0,0.5-0.2,0.5-0.5v-6.8h7.2
			c0.2,0,0.5-0.2,0.5-0.5V85c0-0.3-0.2-0.5-0.5-0.5h-7.2v-6.8h8.4c0.3,0,0.5-0.2,0.5-0.5v-0.7C265.2,76.2,265,76,264.7,76z"/>
		<path fill="#FFFFFF" d="M275.7,75.7c-5,0-8.9,4-8.9,9c0,5,4,9,8.9,9c5,0,9-4,9-9C284.6,79.8,280.7,75.7,275.7,75.7z M275.7,91.9
			c-4,0-7.2-3.2-7.2-7.2c0-4,3.2-7.3,7.2-7.3c4,0,7.2,3.3,7.2,7.3C282.9,88.7,279.6,91.9,275.7,91.9z"/>
		<path fill="#FFFFFF" d="M300.2,81.3c0-3-2.4-5.3-5.4-5.3h-6.5c-0.3,0-0.5,0.2-0.5,0.5V93c0,0.3,0.2,0.5,0.5,0.5h1
			c0.2,0,0.5-0.2,0.5-0.5v-6.4h4.8l3.3,6.6c0,0.1,0.2,0.2,0.4,0.2h1.3c0.4,0,0.6-0.4,0.4-0.7l-3.4-6.3
			C298.7,85.5,300.2,83.6,300.2,81.3z M294.6,85h-4.8v-7.2h4.8c1.9,0,3.6,1.6,3.6,3.5C298.2,83.4,296.6,85,294.6,85z"/>
		<path fill="#FFFFFF" d="M317.7,75.7h-0.4c-0.2,0-0.4,0.1-0.4,0.3L312,89.8c-0.1,0-0.1,0-0.1,0L306.9,76c-0.1-0.1-0.3-0.3-0.4-0.3
			h-0.4c-0.2,0-0.4,0.1-0.4,0.3l-3.2,16.8c-0.1,0.3,0.1,0.6,0.5,0.6h1c0.2,0,0.4-0.2,0.4-0.3l2.2-12.8c0,0,0.1,0,0.1,0l4.6,13.2
			c0,0.1,0.3,0.3,0.4,0.3h0.4c0.1,0,0.4-0.1,0.4-0.3l4.6-13.2c0,0,0.1,0,0.1,0l2.2,12.8c0.1,0.2,0.3,0.3,0.4,0.3h1
			c0.4,0,0.5-0.3,0.4-0.6l-3.2-16.8C318.1,75.9,317.9,75.7,317.7,75.7z"/>
		<path fill="#FFFFFF" d="M330.4,75.7h-0.2c-0.2,0-0.3,0.1-0.4,0.3l-7.6,16.8c-0.1,0.3,0.1,0.6,0.4,0.6h1c0.2,0,0.4-0.1,0.4-0.3
			l1.8-4.1h8.8l1.8,4.1c0.1,0.1,0.2,0.3,0.4,0.3h1c0.4,0,0.6-0.3,0.4-0.6L330.8,76C330.8,75.9,330.6,75.7,330.4,75.7z M326.5,87.5
			l3.6-8.2h0.2c1.2,2.7,2.4,5.5,3.6,8.2H326.5z"/>
		<path fill="#FFFFFF" d="M354.2,76h-0.9c-0.3,0-0.5,0.2-0.5,0.5v13.3c0,0,0,0,0,0l-11.2-14h-0.6c-0.3,0-0.5,0.2-0.5,0.4V93
			c0,0.3,0.2,0.5,0.5,0.5h0.9c0.3,0,0.5-0.2,0.5-0.5V79.4h0l11.4,14.3h0.4c0.2,0,0.5-0.2,0.5-0.4V76.5C354.7,76.2,354.4,76,354.2,76
			z"/>
		<path fill="#FFFFFF" d="M372.2,89.9c-0.1-0.1-0.4-0.1-0.6,0.1c-1.3,1-2.6,1.9-4.8,1.9c-3.9,0-7-3.3-7-7.2c0-3.9,3-7.2,7-7.2
			c1.7,0,3.5,0.7,4.8,1.9c0.2,0.3,0.4,0.3,0.6,0l0.7-0.7c0.2-0.2,0.2-0.5,0-0.7c-1.7-1.4-3.5-2.3-6-2.3c-5,0-9,4-9,9c0,5,4,9,9,9
			c2.2,0,4.4-0.8,6.1-2.4c0.2-0.2,0.2-0.5,0-0.7L372.2,89.9z"/>
		<path fill="#FFFFFF" d="M386.4,76h-9.8c-0.3,0-0.5,0.2-0.5,0.5V93c0,0.3,0.2,0.5,0.5,0.5h9.8c0.3,0,0.5-0.2,0.5-0.5v-0.7
			c0-0.2-0.2-0.5-0.5-0.5h-8.4v-6.4h7.2c0.2,0,0.5-0.2,0.5-0.5v-0.7c0-0.2-0.2-0.5-0.5-0.5h-7.2v-6.1h8.4c0.3,0,0.5-0.2,0.5-0.5
			v-0.7C386.9,76.2,386.7,76,386.4,76z"/>
		<path fill="#FFFFFF" d="M401.2,76h-5.5c-0.3,0-0.5,0.2-0.5,0.5V93c0,0.3,0.2,0.5,0.5,0.5h0.9c0.2,0,0.5-0.2,0.5-0.5v-5.9h4.1
			c3,0,5.6-2.5,5.6-5.6C406.7,78.5,404.2,76,401.2,76z M401,85.3h-4v-7.4h4c2,0,3.8,1.5,3.8,3.6C404.8,83.6,403.1,85.3,401,85.3z"/>
		<path fill="#FFFFFF" d="M421.8,81.3c0-3-2.4-5.3-5.4-5.3h-6.5c-0.3,0-0.5,0.2-0.5,0.5V93c0,0.3,0.2,0.5,0.5,0.5h1
			c0.2,0,0.5-0.2,0.5-0.5v-6.4h4.8l3.3,6.6c0,0.1,0.2,0.2,0.4,0.2h1.3c0.4,0,0.6-0.4,0.4-0.7l-3.4-6.3
			C420.3,85.5,421.8,83.6,421.8,81.3z M416.2,85h-4.8v-7.2h4.8c1.9,0,3.6,1.6,3.6,3.5C419.8,83.4,418.1,85,416.2,85z"/>
		<path fill="#FFFFFF" d="M435.6,76h-9.8c-0.3,0-0.5,0.2-0.5,0.5V93c0,0.3,0.2,0.5,0.5,0.5h9.8c0.3,0,0.5-0.2,0.5-0.5v-0.7
			c0-0.2-0.2-0.5-0.5-0.5h-8.4v-6.4h7.2c0.2,0,0.5-0.2,0.5-0.5v-0.7c0-0.2-0.2-0.5-0.5-0.5h-7.2v-6.1h8.4c0.3,0,0.5-0.2,0.5-0.5
			v-0.7C436,76.2,435.8,76,435.6,76z"/>
		<path fill="#FFFFFF" d="M452.8,76h-1c-0.2,0-0.4,0.1-0.4,0.3l-6.2,14h-0.1l-6.2-14c0-0.1-0.2-0.3-0.4-0.3h-1
			c-0.4,0-0.6,0.3-0.4,0.6l7.5,16.8c0.1,0.1,0.3,0.3,0.4,0.3h0.2c0.2,0,0.3-0.1,0.4-0.3l7.6-16.8C453.4,76.3,453.2,76,452.8,76z"/>
		<path fill="#FFFFFF" d="M456.8,76h-1c-0.2,0-0.5,0.2-0.5,0.5V93c0,0.3,0.2,0.5,0.5,0.5h1c0.3,0,0.5-0.2,0.5-0.5V76.5
			C457.3,76.2,457.1,76,456.8,76z"/>
		<path fill="#FFFFFF" d="M472,76h-9.8c-0.3,0-0.5,0.2-0.5,0.5V93c0,0.3,0.2,0.5,0.5,0.5h9.8c0.3,0,0.5-0.2,0.5-0.5v-0.7
			c0-0.2-0.2-0.5-0.5-0.5h-8.4v-6.4h7.2c0.2,0,0.5-0.2,0.5-0.5v-0.7c0-0.2-0.2-0.5-0.5-0.5h-7.2v-6.1h8.4c0.3,0,0.5-0.2,0.5-0.5
			v-0.7C472.5,76.2,472.3,76,472,76z"/>
		<path fill="#FFFFFF" d="M494.4,76h-1c-0.2,0-0.4,0.2-0.5,0.3l-3.4,12.9h-0.1L485.2,76c0-0.1-0.2-0.3-0.4-0.3h-0.4
			c-0.2,0-0.4,0.1-0.4,0.3l-4.2,13.2h-0.1l-3.5-12.9c-0.1-0.2-0.3-0.3-0.5-0.3h-1c-0.3,0-0.5,0.2-0.4,0.6l4.7,16.7
			c0,0.2,0.3,0.4,0.4,0.4h0.4c0.2,0,0.4-0.1,0.4-0.3l4.2-13.5h0.1l4.3,13.5c0.1,0.1,0.2,0.3,0.4,0.3h0.4c0.2,0,0.4-0.1,0.4-0.4
			l4.7-16.7C495,76.2,494.8,76,494.4,76z"/>
	</g>
	<path fill="#FFFFFF" d="M93.9,30.7L71.8,17.9l0,0l-0.2-0.1l-0.1,0l0,0L49.4,5l0,0l0,0L27.4,17.8l0,0L5,30.7v25.5v0.3V82l22.2,12.8
		l0.1,0.1l0,0l22,12.7l0.1,0.1l22.2-12.8l0.1-0.1v0L93.9,82l0-25.5l0,0V30.7z M5.5,58.8l1.7-1l1.5,0.9l-3.2,1.9V58.8z M69.3,93
		l2-1.1v1l-1.1,0.6L69.3,93z M67.9,92.2l3.4-1.9v1l-2.5,1.4L67.9,92.2z M63.8,89.8l7.5-4.3v1l-6.6,3.8L63.8,89.8z M59.6,87.4
		l11.6-6.7v1l-10.8,6.2L59.6,87.4z M55.5,85l15.8-9.1v1l-14.9,8.6L55.5,85z M46.7,83.1l-19.1-11v-1l19.9,11.5L46.7,83.1z M45.3,83.9
		L27.6,73.7v-1l18.5,10.7L45.3,83.9z M42.5,85.5l-14.9-8.6v-1L43.4,85L42.5,85.5z M41.2,86.3l-13.5-7.8v-1L42,85.8L41.2,86.3z
		 M38.4,87.9l-10.8-6.2v-1l11.6,6.7L38.4,87.9z M37,88.7l-9.4-5.4v-1l10.3,5.9L37,88.7z M34.3,90.3l-6.6-3.8v-1l7.5,4.3L34.3,90.3z
		 M32.9,91.1l-5.3-3v-1l6.1,3.5L32.9,91.1z M30.1,92.7l-2.5-1.4v-1l3.4,1.9L30.1,92.7z M28.7,93.5l-1.1-0.6v-1l2,1.1L28.7,93.5z
		 M22.1,65.7l0-18.8l0.9-0.5l0,19.8L22.1,65.7z M23.5,66.5l0-20.4l0.9-0.5l0,21.4L23.5,66.5z M24.8,67.3l0-22l0.9-0.5l0,23
		L24.8,67.3z M26.2,68.1l0-23.6l0.9-0.5l0,24.6L26.2,68.1z M29.6,19.6l-2,1.1v-1l1.1-0.6L29.6,19.6z M33.7,22l-6.1,3.5v-1l5.3-3
		L33.7,22z M52.2,29.5l19.1,11v1L51.3,30L52.2,29.5z M56.3,27.1l14.9,8.6v1l-15.8-9.1L56.3,27.1z M66,21.5l5.3,3v1L65.1,22L66,21.5z
		 M70.1,19.2l1.1,0.6v1l-2-1.1L70.1,19.2z M75.4,46.1l0,20.4L74.5,67l0-21.4L75.4,46.1z M79.6,48.5l0,15.6l-0.9,0.5l0-16.6
		L79.6,48.5z M83.7,50.9v10.9l-0.9,0.5l0-11.9L83.7,50.9z M87.8,53.3v6.1L87,59.8l0-7.1L87.8,53.3z M90.6,54.9l0,2.9l-0.9,0.5v-3.9
		L90.6,54.9z M89.2,58.6l-0.9,0.5v-5.5l0.9,0.5V58.6z M86.5,52.5l0,7.7l-0.9,0.5l0-8.7L86.5,52.5z M85.1,51.7l0,9.3l-0.9,0.5V51.2
		L85.1,51.7z M82.3,50.1l0,12.5L81.5,63l0-13.4L82.3,50.1z M80.9,49.3l0,14l-0.9,0.5l0-15L80.9,49.3z M78.2,47.7l0,17.2l-0.9,0.5
		l0-18.2L78.2,47.7z M76.8,46.9l0,18.8l-0.9,0.5l0-19.8L76.8,46.9z M74,45.3l0,22l-0.9,0.5l0-23L74,45.3z M72.6,44.5l0,23.6
		l-0.9,0.5l0-24.6L72.6,44.5z M71,43.6l-0.9,0.5L49.7,32.3v-1L71,43.6z M48.9,56.3l-0.6,0.3l0-0.7L48.9,56.3z M50,56.3l0.6-0.3v0.7
		L50,56.3z M49.7,55.9v-0.7l0.6,0.3L49.7,55.9z M49.2,55.9l-0.6-0.3l0.6-0.3V55.9z M47.8,55.7l0,1.3l-0.9,0.5l0-2.3L47.8,55.7z
		 M49.2,56.8v0.7l-0.6-0.3L49.2,56.8z M49.7,56.8l0.6,0.3l-0.6,0.3V56.8z M51.1,57v-1.3l0.9-0.5l0,2.3L51.1,57z M50.8,55.2l-1.1-0.6
		v-1l2,1.1L50.8,55.2z M49.2,54.6l-1.1,0.6l-0.9-0.5l2-1.1V54.6z M46.4,54.9l0,2.9l-0.9,0.5v-3.9L46.4,54.9z M48.1,57.4l1.1,0.6v1
		l-2-1.1L48.1,57.4z M49.7,58.1l1.1-0.6l0.9,0.5l-2,1.1V58.1z M52.5,57.8l0-2.9l0.9-0.5v3.9L52.5,57.8z M52.2,54.4L49.7,53v-1
		l3.4,1.9L52.2,54.4z M49.2,53l-2.5,1.4l-0.9-0.5l3.4-1.9V53z M45,54.1v4.5l-0.9,0.5v-5.5L45,54.1z M46.7,58.2l2.5,1.4v1l-3.4-1.9
		L46.7,58.2z M49.7,59.7l2.5-1.4l0.9,0.5l-3.4,1.9V59.7z M53.8,58.6v-4.5l0.9-0.5l0,5.5L53.8,58.6z M53.6,53.6l-3.9-2.2v-1l4.7,2.7
		L53.6,53.6z M49.2,51.4l-3.9,2.2l-0.9-0.5l4.7-2.7V51.4z M43.7,53.3v6.1l-0.9,0.5l0-7.1L43.7,53.3z M45.3,59l3.9,2.2v1l-4.7-2.7
		L45.3,59z M49.7,61.2l3.9-2.2l0.9,0.5l-4.7,2.7V61.2z M55.2,59.4l0-6.1l0.9-0.5v7.1L55.2,59.4z M55,52.8l-5.3-3v-1l6.1,3.5L55,52.8
		z M49.2,49.8l-5.3,3l-0.9-0.5l6.1-3.5V49.8z M42.3,52.5l0,7.7l-0.9,0.5l0-8.7L42.3,52.5z M43.9,59.8l5.3,3v1l-6.1-3.5L43.9,59.8z
		 M49.7,62.8l5.3-3l0.9,0.5l-6.1,3.5V62.8z M56.6,60.1v-7.7l0.9-0.5v8.7L56.6,60.1z M56.3,52l-6.6-3.8v-1l7.5,4.3L56.3,52z
		 M49.2,48.2L42.5,52l-0.9-0.5l7.5-4.3V48.2z M40.9,51.7l0,9.3L40,61.4l0-10.3L40.9,51.7z M42.5,60.6l6.6,3.8v1l-7.5-4.3L42.5,60.6z
		 M49.7,64.4l6.6-3.8l0.9,0.5l-7.5,4.3V64.4z M58,60.9v-9.3l0.9-0.5v10.3L58,60.9z M57.7,51.2l-8-4.6v-1l8.9,5.1L57.7,51.2z
		 M49.2,46.6l-8,4.6l-0.9-0.5l8.9-5.1V46.6z M39.5,50.9l0,10.9l-0.9,0.5l0-11.9L39.5,50.9z M41.2,61.4l8,4.6v1l-8.9-5.1L41.2,61.4z
		 M49.7,66l8-4.6l0.9,0.5L49.7,67V66z M59.4,61.7V50.9l0.9-0.5l0,11.9L59.4,61.7z M59.1,50.4L49.7,45v-1L60,49.9L59.1,50.4z
		 M49.2,45l-9.4,5.4l-0.9-0.5L49.2,44V45z M38.1,50.1l0,12.5L37.3,63l0-13.4L38.1,50.1z M39.8,62.2l9.4,5.4v1l-10.3-5.9L39.8,62.2z
		 M49.7,67.6l9.4-5.4l0.9,0.5l-10.3,5.9V67.6z M60.7,62.5l0-12.5l0.9-0.5l0,13.4L60.7,62.5z M60.5,49.6l-10.8-6.2v-1l11.6,6.7
		L60.5,49.6z M49.2,43.4l-10.8,6.2l-0.9-0.5l11.6-6.7V43.4z M36.8,49.3l0,14l-0.9,0.5l0-15L36.8,49.3z M38.4,63l10.8,6.2v1
		l-11.6-6.7L38.4,63z M49.7,69.2L60.5,63l0.9,0.5l-11.6,6.7V69.2z M62.1,63.3l0-14l0.9-0.5l0,15L62.1,63.3z M61.9,48.8l-12.2-7v-1
		l13,7.5L61.9,48.8z M49.2,41.8l-12.2,7l-0.9-0.5l13-7.5V41.8z M35.4,48.5l0,15.6l-0.9,0.5l0-16.6L35.4,48.5z M37,63.8l12.2,7v1
		l-13-7.5L37,63.8z M49.7,70.8l12.2-7l0.9,0.5l-13,7.5V70.8z M63.5,64.1l0-15.6l0.9-0.5l0,16.6L63.5,64.1z M63.2,48l-13.5-7.8v-1
		l14.4,8.3L63.2,48z M49.2,40.2L35.6,48l-0.9-0.5l14.4-8.3V40.2z M34,47.7l0,17.2l-0.9,0.5l0-18.2L34,47.7z M35.6,64.6l13.5,7.8v1
		l-14.4-8.3L35.6,64.6z M49.7,72.4l13.5-7.8l0.9,0.5l-14.4,8.3V72.4z M64.9,64.9l0-17.2l0.9-0.5l0,18.2L64.9,64.9z M64.6,47.2
		l-14.9-8.6v-1l15.8,9.1L64.6,47.2z M49.2,38.6l-14.9,8.6l-0.9-0.5l15.8-9.1V38.6z M32.6,46.9l0,18.8l-0.9,0.5l0-19.8L32.6,46.9z
		 M34.3,65.4L49.2,74v1l-15.8-9.1L34.3,65.4z M49.7,74l14.9-8.6l0.9,0.5L49.7,75V74z M66.3,65.7l0-18.8l0.9-0.5l0,19.8L66.3,65.7z
		 M66,46.4L49.7,37v-1L66.9,46L66,46.4z M49.2,37l-16.3,9.4L32,46L49.2,36V37z M31.2,46.1l0,20.4L30.4,67l0-21.4L31.2,46.1z
		 M32.9,66.2l16.3,9.4v1L32,66.7L32.9,66.2z M49.7,75.6L66,66.2l0.9,0.5l-17.2,9.9V75.6z M67.6,66.5l0-20.4l0.9-0.5l0,21.4
		L67.6,66.5z M67.4,45.7L49.7,35.4v-1l18.5,10.7L67.4,45.7z M49.2,35.4L31.5,45.7l-0.9-0.5l18.5-10.7V35.4z M29.9,45.3l0,22L29,67.8
		l0-23L29.9,45.3z M31.5,67l17.7,10.2v1L30.6,67.5L31.5,67z M49.7,77.2L67.4,67l0.9,0.5L49.7,78.2V77.2z M69,67.3l0-22l0.9-0.5l0,23
		L69,67.3z M68.8,44.9l-19.1-11v-1l19.9,11.5L68.8,44.9z M49.2,33.8l-19.1,11l-0.9-0.5l19.9-11.5V33.8z M28.5,68.1l-0.9,0.5l0-24.6
		l0.9,0.5L28.5,68.1z M30.1,67.8l19.1,11v1L29.3,68.3L30.1,67.8z M49.7,78.8l19.1-11l0.9,0.5L49.7,79.8V78.8z M71.3,68.6l-0.9-0.5
		l0-23.6l0.9-0.5L71.3,68.6z M49.2,32.3L28.7,44.1l-0.9-0.5l21.3-12.3V32.3z M28.7,68.6l20.4,11.8v1L27.9,69.1L28.7,68.6z
		 M49.7,80.4l20.4-11.8l0.9,0.5L49.7,81.4V80.4z M68.8,19.9l2.5,1.4v1l-3.4-1.9L68.8,19.9z M67.4,20.7l3.9,2.2v1l-4.7-2.7L67.4,20.7
		z M64.6,22.3l6.6,3.8v1l-7.5-4.3L64.6,22.3z M63.2,23.1l8,4.6v1l-8.9-5.1L63.2,23.1z M61.9,23.9l9.4,5.4v1L61,24.4L61.9,23.9z
		 M60.5,24.7L71.3,31v1l-11.6-6.7L60.5,24.7z M59.1,25.5l12.2,7v1l-13-7.5L59.1,25.5z M57.7,26.3l13.5,7.8v1l-14.4-8.3L57.7,26.3z
		 M55,27.9l16.3,9.4v1l-17.2-9.9L55,27.9z M53.6,28.7l17.7,10.2v1L52.7,29.2L53.6,28.7z M50.8,30.3l20.4,11.8v1L50,30.8L50.8,30.3z
		 M27.6,43.1v-1l20.4-11.8l0.9,0.5L27.6,43.1z M47.5,30L27.6,41.5v-1l19.1-11L47.5,30z M27.6,39.9v-1l17.7-10.2l0.9,0.5L27.6,39.9z
		 M27.6,38.3v-1l16.3-9.4l0.9,0.5L27.6,38.3z M43.4,27.6l-15.8,9.1v-1l14.9-8.6L43.4,27.6z M27.6,35.1v-1l13.5-7.8l0.9,0.5
		L27.6,35.1z M27.6,33.5v-1l12.2-7l0.9,0.5L27.6,33.5z M39.3,25.2L27.6,32v-1l10.8-6.2L39.3,25.2z M27.6,30.4v-1l9.4-5.4l0.9,0.5
		L27.6,30.4z M27.6,28.8v-1l8-4.6l0.9,0.5L27.6,28.8z M27.6,27.2v-1l6.6-3.8l0.9,0.5L27.6,27.2z M27.6,24v-1l3.9-2.2l0.9,0.5
		L27.6,24z M27.6,22.4v-1l2.5-1.4l0.9,0.5L27.6,22.4z M31.5,91.9l-3.9-2.2v-1l4.7,2.7L31.5,91.9z M35.6,89.5l-8-4.6v-1l8.9,5.1
		L35.6,89.5z M39.8,87.1l-12.2-7v-1l13,7.5L39.8,87.1z M43.9,84.7l-16.3-9.4v-1l17.2,9.9L43.9,84.7z M48.1,82.3L27.6,70.5v-1
		l21.3,12.3L48.1,82.3z M71.3,69.5v1L50.8,82.3L50,81.8L71.3,69.5z M51.3,82.6l19.9-11.5v1l-19.1,11L51.3,82.6z M52.7,83.4
		l18.5-10.7v1L53.6,83.9L52.7,83.4z M71.3,74.3v1L55,84.7l-0.9-0.5L71.3,74.3z M56.9,85.8l14.4-8.3v1l-13.5,7.8L56.9,85.8z
		 M71.3,79.1v1l-12.2,7l-0.9-0.5L71.3,79.1z M61,88.2l10.3-5.9v1l-9.4,5.4L61,88.2z M71.3,83.9v1l-8,4.6L62.4,89L71.3,83.9z
		 M65.1,90.6l6.1-3.5v1l-5.3,3L65.1,90.6z M66.5,91.4l4.7-2.7v1l-3.9,2.2L66.5,91.4z M73.5,68.2l19.8,11.4v1.7L72,69.1L73.5,68.2z
		 M74.1,67.9l1.5-0.9l17.8,10.3v1.7L74.1,67.9z M76.1,66.7l1.5-0.9L93.4,75v1.7L76.1,66.7z M78.1,65.6l1.5-0.9l13.8,8v1.7L78.1,65.6
		z M80.1,64.4l1.5-0.9l11.8,6.8v1.7L80.1,64.4z M82.1,63.3l1.5-0.9l9.8,5.6v1.7L82.1,63.3z M84.1,62.1l1.5-0.9l7.8,4.5v1.7
		L84.1,62.1z M86.1,61l1.5-0.9l5.8,3.3v1.7L86.1,61z M88.1,59.8l1.5-0.9l3.8,2.2v1.7L88.1,59.8z M90.1,58.6l1.5-0.9l1.7,1v1.7
		L90.1,58.6z M91.1,57.5l0-2.3l0.9,0.5V57L91.1,57.5z M92,55.1l1.3-0.8l0,0.6l-0.8,0.5L92,55.1z M91.5,54.8L91,54.5l2.4-1.4v0.6
		L91.5,54.8z M90.5,54.2l-0.5-0.3l3.4-2v0.6L90.5,54.2z M89.4,53.6l-0.5-0.3l4.5-2.6v0.6L89.4,53.6z M88.4,53l-0.5-0.3l5.5-3.2v0.6
		L88.4,53z M87.3,52.4l-0.5-0.3l6.6-3.8l0,0.6L87.3,52.4z M86.3,51.8l-0.5-0.3l7.6-4.4v0.6L86.3,51.8z M85.2,51.2l-0.5-0.3l8.7-5
		v0.6L85.2,51.2z M84.2,50.5l-0.5-0.3l9.7-5.6l0,0.6L84.2,50.5z M83.1,49.9l-0.5-0.3l10.8-6.2V44L83.1,49.9z M82,49.3L81.5,49
		l11.8-6.8v0.6L82,49.3z M81,48.7l-0.5-0.3L93.4,41v0.6L81,48.7z M79.9,48.1l-0.5-0.3l13.9-8.1v0.6L79.9,48.1z M78.9,47.5l-0.5-0.3
		l15-8.7l0,0.6L78.9,47.5z M77.8,46.9l-0.5-0.3l16-9.3v0.6L77.8,46.9z M76.8,46.3L76.3,46l17.1-9.9v0.6L76.8,46.3z M75.7,45.7
		l-0.5-0.3l18.2-10.5v0.6L75.7,45.7z M74.7,45.1l-0.5-0.3l19.2-11.1v0.6L74.7,45.1z M73.6,44.5l-0.5-0.3l20.3-11.7l0,0.6L73.6,44.5z
		 M72.6,43.9L72,43.6l21.3-12.3v0.6L72.6,43.9z M71.8,43.1v-0.6l20.8-12l0.5,0.3L71.8,43.1z M71.8,41.9v-0.6l19.7-11.4l0.5,0.3
		L71.8,41.9z M71.8,40.7v-0.6l18.7-10.8l0.5,0.3L71.8,40.7z M71.8,39.5v-0.6l17.6-10.2l0.5,0.3L71.8,39.5z M71.8,38.3v-0.6l16.6-9.6
		l0.5,0.3L71.8,38.3z M71.8,37v-0.6l15.5-9l0.5,0.3L71.8,37z M71.8,35.8v-0.6l14.5-8.4l0.5,0.3L71.8,35.8z M71.8,34.6V34l13.4-7.7
		l0.5,0.3L71.8,34.6z M71.8,33.4v-0.6l12.4-7.1l0.5,0.3L71.8,33.4z M71.8,32.2v-0.6L83.1,25l0.5,0.3L71.8,32.2z M71.8,31v-0.6
		L82,24.4l0.5,0.3L71.8,31z M71.8,29.7v-0.6l9.2-5.3l0.5,0.3L71.8,29.7z M71.8,28.5v-0.6l8.2-4.7l0.5,0.3L71.8,28.5z M71.8,27.3
		v-0.6l7.1-4.1l0.5,0.3L71.8,27.3z M71.8,26.1v-0.6l6.1-3.5l0.5,0.3L71.8,26.1z M71.8,24.9v-0.6l5-2.9l0.5,0.3L71.8,24.9z
		 M71.8,23.7v-0.6l3.9-2.3l0.5,0.3L71.8,23.7z M71.8,22.5v-0.6l2.9-1.7l0.5,0.3L71.8,22.5z M71.8,21.2v-0.6l1.8-1.1l0.5,0.3
		L71.8,21.2z M71.8,20v-0.6l0.8-0.5l0.5,0.3L71.8,20z M71.8,18.8v-0.3l0.3,0.2L71.8,18.8z M71.3,19.2l-0.6-0.3l0.6-0.3V19.2z
		 M69.8,18.8v-1.4l1.2,0.7L69.8,18.8z M69.3,19.1l-1.5,0.9v-3.7l1.5,0.9V19.1z M67.3,20.2l-1.5,0.9l0-6.1l1.5,0.9V20.2z M65.2,21.4
		l-1.5,0.9l0-8.4l1.5,0.9L65.2,21.4z M63.2,22.5l-1.5,0.9l0-10.7l1.5,0.9L63.2,22.5z M61.2,23.7l-1.5,0.9l0-13l1.5,0.9L61.2,23.7z
		 M59.2,24.9l-1.5,0.9l0-15.3l1.5,0.9L59.2,24.9z M57.2,26l-1.5,0.9l0-17.6l1.5,0.9L57.2,26z M55.2,27.2L53.7,28l0-20l1.5,0.9
		L55.2,27.2z M53.2,28.3l-1.5,0.9l0-22.3l1.5,0.9L53.2,28.3z M51.2,29.5l-1.5,0.9l0-24.6l1.5,0.9L51.2,29.5z M49.2,30.4l-1.5-0.9
		l0-22.9l1.5-0.9L49.2,30.4z M47.2,29.2l-1.5-0.9l0-20.6l1.5-0.9L47.2,29.2z M45.2,28l-1.5-0.9l0-18.2l1.5-0.9L45.2,28z M43.2,26.9
		L41.7,26l0-15.9l1.5-0.9L43.2,26.9z M41.1,25.7l-1.5-0.9l0-13.6l1.5-0.9L41.1,25.7z M39.1,24.6l-1.5-0.9l0-11.3l1.5-0.9L39.1,24.6z
		 M37.1,23.4l-1.5-0.9l0-9l1.5-0.9L37.1,23.4z M35.1,22.2l-1.5-0.9l0-6.7l1.5-0.9L35.1,22.2z M33.1,21.1l-1.5-0.9l0-4.3l1.5-0.9
		L33.1,21.1z M31.1,19.9l-1.5-0.9v-2l1.5-0.9L31.1,19.9z M29.1,18.8l-1.2-0.7l1.2-0.7V18.8z M28.2,18.9l-0.6,0.3v-0.7L28.2,18.9z
		 M27.1,19.4V20l-1.3-0.8l0.5-0.3L27.1,19.4z M26.8,18.7l0.3-0.2v0.3L26.8,18.7z M27.1,20.6v0.6l-2.4-1.4l0.5-0.3L27.1,20.6z
		 M27.1,21.8v0.6l-3.4-2l0.5-0.3L27.1,21.8z M27.1,23.1v0.6l-4.5-2.6l0.5-0.3L27.1,23.1z M27.1,24.3v0.6l-5.5-3.2l0.5-0.3L27.1,24.3
		z M27.1,25.5v0.6l-6.6-3.8L21,22L27.1,25.5z M27.1,26.7v0.6l-7.6-4.4l0.5-0.3L27.1,26.7z M27.1,27.9v0.6l-8.7-5l0.5-0.3L27.1,27.9z
		 M27.1,29.1v0.6l-9.7-5.6l0.5-0.3L27.1,29.1z M27.1,30.4V31l-10.8-6.2l0.5-0.3L27.1,30.4z M27.1,31.6v0.6l-11.8-6.8l0.5-0.3
		L27.1,31.6z M27.1,32.8v0.6l-12.9-7.4l0.5-0.3L27.1,32.8z M27.1,34v0.6l-13.9-8.1l0.5-0.3L27.1,34z M27.1,35.2v0.6l-15-8.7l0.5-0.3
		L27.1,35.2z M27.1,36.4V37l-16-9.3l0.5-0.3L27.1,36.4z M27.1,37.6v0.6L10,28.4l0.5-0.3L27.1,37.6z M27.1,38.9v0.6L8.9,29l0.5-0.3
		L27.1,38.9z M27.1,40.1v0.6L7.9,29.6l0.5-0.3L27.1,40.1z M27.1,41.3v0.6L6.8,30.2l0.5-0.3L27.1,41.3z M27.1,42.5v0.6L5.8,30.8
		l0.5-0.3L27.1,42.5z M26.8,43.6l-0.5,0.3l-20.8-12v-0.6L26.8,43.6z M25.8,44.2l-0.5,0.3L5.5,33.1v-0.6L25.8,44.2z M24.7,44.8
		l-0.5,0.3L5.5,34.3v-0.6L24.7,44.8z M23.7,45.4l-0.5,0.3L5.5,35.5v-0.6L23.7,45.4z M22.6,46l-0.5,0.3L5.5,36.7v-0.6L22.6,46z
		 M21.6,46.6L21,46.9l-15.5-9v-0.6L21.6,46.6z M20.5,47.2L20,47.5L5.5,39.2v-0.6L20.5,47.2z M19.5,47.8l-0.5,0.3L5.5,40.4v-0.6
		L19.5,47.8z M18.4,48.4l-0.5,0.3L5.5,41.6V41L18.4,48.4z M13.8,60.9l0-9.3l0.9-0.5l0,10.3L13.8,60.9z M15.2,61.7l0-10.9l0.9-0.5
		l0,11.8L15.2,61.7z M16.6,62.5l0-12.5l0.9-0.5l0,13.4L16.6,62.5z M17.4,49l-0.5,0.3L5.5,42.8v-0.6L17.4,49z M16.3,49.6l-0.5,0.3
		L5.5,44v-0.6L16.3,49.6z M15.3,50.2l-0.5,0.3l-9.2-5.3v-0.6L15.3,50.2z M14.2,50.8l-0.5,0.3l-8.2-4.7v-0.6L14.2,50.8z M13.2,51.5
		l-0.5,0.3l-7.1-4.1V47L13.2,51.5z M12.1,52.1l-0.5,0.3l-6.1-3.5v-0.6L12.1,52.1z M11.1,52.7L10.5,53l-5-2.9v-0.6L11.1,52.7z
		 M10,53.3l-0.5,0.3l-3.9-2.3v-0.6L10,53.3z M8.9,53.9l-0.5,0.3l-2.9-1.7v-0.6L8.9,53.9z M7.9,54.5l-0.5,0.3l-1.8-1.1v-0.6L7.9,54.5
		z M7.8,55.2l0,2.3L6.9,57v-1.3L7.8,55.2z M8.3,57.8l0-2.9l0.9-0.5l0,3.9L8.3,57.8z M9.7,58.6l0-4.5l0.9-0.5v5.5L9.7,58.6z M11,59.4
		v-6.1l0.9-0.5l0,7.1L11,59.4z M12.4,60.1l0-7.7l0.9-0.5l0,8.7L12.4,60.1z M14.8,62.1l-9.3,5.3v-1.7l7.8-4.5L14.8,62.1z M5.5,68.1
		l9.8-5.6l1.5,0.9L5.5,69.8V68.1z M17.9,63.3l0-14l0.9-0.5l0,15L17.9,63.3z M19.3,64.1l0-15.6l0.9-0.5l0,16.6L19.3,64.1z M20.7,64.9
		l0-17.2l0.9-0.5l0,18.2L20.7,64.9z M22.8,66.7l-17.3,10V75l15.8-9.1L22.8,66.7z M5.5,77.3L23.3,67l1.5,0.9L5.5,79V77.3z M5.5,79.7
		l19.8-11.4l1.5,0.9L5.5,81.4V79.7z M27.1,69.5v1.7L7.3,82.7l-1.5-0.9L27.1,69.5z M27.1,71.8v1.7L9.3,83.8L7.8,83L27.1,71.8z
		 M27.1,74.2v1.7L11.3,85l-1.5-0.9L27.1,74.2z M27.1,76.5v1.7l-13.8,8l-1.5-0.9L27.1,76.5z M27.1,78.8v1.7l-11.8,6.8l-1.5-0.9
		L27.1,78.8z M27.1,81.1v1.7l-9.8,5.6l-1.5-0.9L27.1,81.1z M27.1,83.4v1.7l-7.8,4.5l-1.5-0.9L27.1,83.4z M27.1,85.7v1.7l-5.8,3.3
		l-1.5-0.9L27.1,85.7z M27.1,88.1v1.7L23.3,92l-1.5-0.9L27.1,88.1z M27.1,90.4v1.7l-1.7,1l-1.5-0.9L27.1,90.4z M27.1,92.7v1.4
		l-1.2-0.7L27.1,92.7z M28.2,93.8l-0.6,0.3v-0.7L28.2,93.8z M28.7,94.1l0.5-0.3v1.5L28.7,95V94.1z M28.1,94.7l-0.3-0.2l0.3-0.2V94.7
		z M29.7,93.5l0.5-0.3l0,2.7l-0.5-0.3V93.5z M30.8,92.9l0.5-0.3l0,4l-0.5-0.3L30.8,92.9z M31.8,92.3l0.5-0.3l0,5.2l-0.5-0.3
		L31.8,92.3z M32.9,91.7l0.5-0.3l0,6.4l-0.5-0.3L32.9,91.7z M33.9,91.1l0.5-0.3l0,7.6l-0.5-0.3L33.9,91.1z M35,90.5l0.5-0.3l0,8.8
		L35,98.7L35,90.5z M36,89.9l0.5-0.3l0,10L36,99.3L36,89.9z M37.1,89.3l0.5-0.3l0,11.2l-0.5-0.3L37.1,89.3z M38.1,88.7l0.5-0.3
		l0,12.5l-0.5-0.3L38.1,88.7z M39.2,88l0.5-0.3l0,13.7l-0.5-0.3L39.2,88z M40.2,87.4l0.5-0.3l0,14.9l-0.5-0.3L40.2,87.4z M41.3,86.8
		l0.5-0.3l0,16.1l-0.5-0.3L41.3,86.8z M42.3,86.2l0.5-0.3l0,17.3l-0.5-0.3L42.3,86.2z M43.4,85.6l0.5-0.3l0,18.5l-0.5-0.3L43.4,85.6
		z M44.4,85l0.5-0.3l0,19.7l-0.5-0.3L44.4,85z M45.5,84.4l0.5-0.3l0,21l-0.5-0.3L45.5,84.4z M46.5,83.8l0.5-0.3l0,22.2l-0.5-0.3
		L46.5,83.8z M47.6,83.2l0.5-0.3l0,23.4l-0.5-0.3L47.6,83.2z M48.6,82.6l0.5-0.3l0,24.6l-0.5-0.3L48.6,82.6z M49.7,82.3l0.5,0.3
		l0,24l-0.5,0.3L49.7,82.3z M50.8,82.9l0.5,0.3l0,22.8l-0.5,0.3L50.8,82.9z M51.8,83.5l0.5,0.3l0,21.6l-0.5,0.3L51.8,83.5z
		 M52.9,84.1l0.5,0.3l0,20.3l-0.5,0.3L52.9,84.1z M53.9,84.7l0.5,0.3l0,19.1l-0.5,0.3L53.9,84.7z M55,85.3l0.5,0.3l0,17.9l-0.5,0.3
		L55,85.3z M56,85.9l0.5,0.3l0,16.7l-0.5,0.3L56,85.9z M57.1,86.5l0.5,0.3l0,15.5l-0.5,0.3L57.1,86.5z M58.1,87.1l0.5,0.3l0,14.3
		l-0.5,0.3L58.1,87.1z M59.2,87.7l0.5,0.3v13.1l-0.5,0.3L59.2,87.7z M60.2,88.3l0.5,0.3l0,11.8l-0.5,0.3V88.3z M61.3,89l0.5,0.3
		l0,10.6l-0.5,0.3L61.3,89z M62.3,89.6l0.5,0.3l0,9.4l-0.5,0.3L62.3,89.6z M63.4,90.2l0.5,0.3v8.2L63.4,99L63.4,90.2z M64.4,90.8
		l0.5,0.3l0,7l-0.5,0.3V90.8z M65.5,91.4l0.5,0.3l0,5.8l-0.5,0.3L65.5,91.4z M66.5,92l0.5,0.3l0,4.6l-0.5,0.3L66.5,92z M67.6,92.6
		l0.5,0.3l0,3.3l-0.5,0.3L67.6,92.6z M68.6,93.2l0.5,0.3v2.1l-0.5,0.3L68.6,93.2z M69.7,93.8l0.5,0.3V95l-0.5,0.3V93.8z M70.7,94.4
		l0.3,0.2l-0.3,0.2V94.4z M70.7,93.8l0.6-0.3v0.7L70.7,93.8z M71.8,92.7l1.2,0.7l-1.2,0.7V92.7z M71.8,92.1v-1.7l3.2,1.9l-1.5,0.9
		L71.8,92.1z M71.8,89.8v-1.7l5.2,3L75.5,92L71.8,89.8z M71.8,87.5v-1.7l7.3,4.2l-1.5,0.9L71.8,87.5z M71.8,85.1v-1.7l9.3,5.3
		l-1.5,0.9L71.8,85.1z M71.8,82.8v-1.7l11.3,6.5l-1.5,0.9L71.8,82.8z M71.8,80.5v-1.7l13.3,7.7l-1.5,0.9L71.8,80.5z M71.8,78.2v-1.7
		l15.3,8.8l-1.5,0.9L71.8,78.2z M71.8,75.9v-1.7l17.3,10L87.6,85L71.8,75.9z M71.8,73.6v-1.7L91.1,83l-1.5,0.9L71.8,73.6z
		 M71.8,71.2v-1.7l21.3,12.3l-1.5,0.9L71.8,71.2z M92.1,57.5l1.2-0.7v1.4L92.1,57.5z M92.5,56.7V56l0.6,0.3L92.5,56.7z M93.1,55.7
		l0.3-0.2v0.3L93.1,55.7z M5.5,54.3l1.3,0.8l-0.5,0.3l-0.8-0.5V54.3z M6.4,56v0.7l-0.6-0.3L6.4,56z M5.5,61.1l3.8-2.2l1.5,0.9
		l-5.2,3V61.1z M5.5,63.4l5.8-3.3l1.5,0.9l-7.3,4.2V63.4z M5.5,70.4l11.8-6.8l1.5,0.9L5.5,72.1V70.4z M5.5,72.7l13.8-8l1.5,0.9
		L5.5,74.4V72.7z M5.5,55.6l0.3,0.2l-0.3,0.2V55.6z M6.7,57.5l-1.2,0.7v-1.4L6.7,57.5z"/>
</g>
</svg>
