<?xml version="1.0" encoding="utf-8"?>
<!-- Generator: Adobe Illustrator 18.0.0, SVG Export Plug-In . SVG Version: 6.00 Build 0)  -->
<!DOCTYPE svg PUBLIC "-//W3C//DTD SVG 1.1//EN" "http://www.w3.org/Graphics/SVG/1.1/DTD/svg11.dtd">
<svg version="1.1" id="Ebene_1" xmlns="http://www.w3.org/2000/svg" xmlns:xlink="http://www.w3.org/1999/xlink" x="0px" y="0px"
	 viewBox="0 0 500 493" enable-background="new 0 0 500 493" xml:space="preserve">
<g>
	<g>
		<path fill="#FFFFFF" d="M60.9,451.8H64c1.1,0,2-0.4,2.5-1.1c0.6-0.7,0.8-1.8,0.6-2.8l-10-52c-0.3-1.4-1.7-2.4-3.1-2.4h-1.2
			c-1.3,0-2.6,0.9-3,2l-13.6,38.4l-13.8-38.4c-0.4-1.2-1.7-2.1-3-2.1h-1.2c-1.5,0-2.8,1-3.1,2.5l-10,51.9c-0.2,1.1,0,2.1,0.6,2.9
			c0.6,0.7,1.5,1.1,2.6,1.1h3.1c1.5,0,3-1.2,3.1-2.6l5.7-33.6l12.3,34.9c0.4,1.3,1.9,2.1,3,2.1h1.4c1.1,0,2.6-0.8,3-2L52,415.6
			l5.9,33.8C58.2,450.7,59.6,451.8,60.9,451.8z"/>
		<path fill="#FFFFFF" d="M101.1,451c9.3-1.1,16.2-5.7,19.1-8.6c1.8-1.7,1.2-2.5,0.1-3.6c-0.9-1-1.7-1.8-2.7-2.8
			c-1.3-1.4-2-0.6-3.7,0.7c-2.9,2.3-7.2,5-12.9,5.7c-9.6,1.2-18.6-6.4-20.2-15.3l38.9-4.8c1.2-0.1,2.2-1.2,2.2-2.6
			c0-1-0.1-2.7-0.2-3.7c-1.7-14.2-13.3-23.5-27.5-21.7c-16.3,2-24.9,16.3-23,31.6C73,441.4,84.7,453,101.1,451z M95.1,402.5
			c8.2-1,15.6,5.2,17,13l-32.1,4C79.9,411,86.1,403.6,95.1,402.5z"/>
		<path fill="#FFFFFF" d="M147.7,418c-6.6-2.8-9.3-5.4-9.3-9.3c0-2.5,1.9-6.7,8.9-6.7c1.7,0,4.7,0.5,9.3,3.3c2,1.1,3.8,0.6,5-1.3
			l0.9-1.5c0.8-1.3,0.7-2.4,0.5-3.1c-0.3-1.1-1.1-1.8-1.5-2c-0.2-0.2-6.2-4.3-14.2-4.3c-13.4,0-18.2,9.3-18.2,15.5
			c0,10.4,6.6,14.1,14.7,17.6c9.2,3.8,12.4,6.6,12.4,10.6c0,3.8-3.7,6.7-8.6,6.7c-5.1,0-9.5-3.3-11.9-5.4c-0.7-0.6-1.4-0.9-2.2-0.9
			c-1.5,0-2.5,1.1-3,1.8c-0.2,0.3-0.4,0.5-0.7,0.8l-0.7,0.8c-1.7,2.7,0.1,4.3,0.8,4.9c1.2,1.1,7.8,6.7,17.5,6.7
			c10.4,0,18.5-6.9,18.5-15.7C165.9,426.3,157.7,422.1,147.7,418z"/>
		<path fill="#FFFFFF" d="M176.1,451.8h3c1.8,0,3.2-1.5,3.2-3.2v-21.7h27.8v21.7c0,1.8,1.5,3.2,3.2,3.2h3c1.8,0,3.2-1.5,3.2-3.2
			v-51.2c0-1.8-1.5-3.2-3.2-3.2h-3c-1.8,0-3.2,1.5-3.2,3.2v20.8h-27.8v-20.8c0-1.8-1.5-3.2-3.2-3.2h-3c-1.8,0-3.2,1.5-3.2,3.2v51.2
			C172.8,450.3,174.3,451.8,176.1,451.8z"/>
		<path fill="#FFFFFF" d="M251.5,450.2v-45.7h11.7c1.8,0,3.2-1.5,3.2-3.2v-2.2c0-1.8-1.5-3.2-3.2-3.2h-32.8c-1.8,0-3.2,1.5-3.2,3.2
			v2.2c0,1.8,1.5,3.2,3.2,3.2h11.7v45.7c0,1.8,1.5,3.2,3.2,3.2h2.9C250,453.5,251.5,452,251.5,450.2z"/>
		<path fill="#FFFFFF" d="M275.7,453.5h3.1c1.8,0,3.2-1.5,3.2-3.2v-51.2c0-1.8-1.5-3.2-3.2-3.2h-3.1c-1.8,0-3.2,1.5-3.2,3.2v51.2
			C272.4,452,273.9,453.5,275.7,453.5z"/>
		<path fill="#FFFFFF" d="M348.6,453.5c1.1,0,2-0.4,2.5-1.1c0.6-0.7,0.8-1.8,0.6-2.8l-10-52c-0.3-1.4-1.6-2.4-3.1-2.4h-1.2
			c-1.3,0-2.6,0.9-3,2l-13.6,38.4l-13.8-38.4c-0.4-1.2-1.7-2.1-3-2.1h-1.2c-1.5,0-2.8,1-3.1,2.5l-10,51.9c-0.2,1.1,0,2.1,0.6,2.9
			c0.6,0.7,1.5,1.1,2.6,1.1h3.1c1.5,0,2.9-1.2,3.1-2.6l5.7-33.6l12.3,34.9c0.4,1.3,1.9,2,3,2h1.4c1.1,0,2.6-0.8,3-2l12.2-34.9
			l5.9,33.9c0.4,1.3,1.7,2.4,3.1,2.4H348.6z"/>
		<path fill="#FFFFFF" d="M410.1,451.8c0.6-0.9,0.6-2.1,0.2-3.1l-23.4-52.1c-0.6-1.2-1.6-1.8-2.9-1.8h-0.8c-1.3,0-2.3,0.7-2.9,1.9
			l-23.5,52c-0.5,1-0.4,2.2,0.2,3.1c0.6,0.9,1.6,1.4,2.8,1.4h3.1c1.5,0,2.6-1,2.9-1.9l5.2-11.7h25.1l5.2,11.6c0.4,1,1.5,2,3,2h3.1
			C408.5,453.2,409.5,452.7,410.1,451.8z M392.4,431.3h-17.7l8.9-19.9c1.4,3.2,2.9,6.5,4.3,9.7C389.4,424.5,390.9,427.9,392.4,431.3
			z"/>
		<path fill="#FFFFFF" d="M440.3,395.6h-32.8c-1.8,0-3.2,1.5-3.2,3.2v2.2c0,1.8,1.5,3.2,3.2,3.2h11.7V450c0,1.8,1.5,3.2,3.2,3.2h2.9
			c1.8,0,3.2-1.5,3.2-3.2v-45.7h11.7c1.8,0,3.2-1.5,3.2-3.2v-2.2C443.5,397,442.1,395.6,440.3,395.6z"/>
		<path fill="#FFFFFF" d="M474.3,450.8c9.3-1.1,16.2-5.7,19.1-8.7c1.8-1.7,1.2-2.5,0.1-3.6c-0.9-1-1.7-1.8-2.7-2.8
			c-1.3-1.4-2-0.6-3.7,0.7c-2.9,2.3-7.2,5-12.9,5.7c-9.6,1.2-18.6-6.4-20.3-15.3l38.9-4.8c1.2-0.1,2.2-1.2,2.1-2.6
			c0-1-0.1-2.7-0.2-3.7c-1.7-14.2-13.3-23.5-27.5-21.7c-16.3,2-24.9,16.3-23,31.6C446.3,441.2,458,452.8,474.3,450.8z M468.4,402.3
			c8.2-1,15.6,5.2,16.9,13l-32.1,4C453.1,410.7,459.3,403.4,468.4,402.3z"/>
		<path fill="#FFFFFF" d="M9.4,465.8H8.1c-0.3,0-0.6,0.3-0.6,0.6v21c0,0.3,0.3,0.6,0.6,0.6h1.3c0.3,0,0.6-0.3,0.6-0.6v-21
			C10,466.1,9.7,465.8,9.4,465.8z"/>
		<path fill="#FFFFFF" d="M33.1,465.8H32c-0.3,0-0.6,0.3-0.6,0.6v16.9c0,0,0,0-0.1,0L17,465.5h-0.8c-0.3,0-0.6,0.3-0.6,0.6v21.3
			c0,0.3,0.3,0.6,0.6,0.6h1.1c0.3,0,0.6-0.3,0.6-0.6v-17.2h0l14.5,18.1h0.6c0.3,0,0.6-0.3,0.6-0.6v-21.3
			C33.7,466.1,33.4,465.8,33.1,465.8z"/>
		<path fill="#FFFFFF" d="M44.6,475.6c-2.7-1.1-4.3-2.3-4.3-4.5c0-1.3,1-3.5,4.4-3.5c1.9,0,3.9,1.3,4.1,1.5c0.5,0.3,0.8,0.2,1.1-0.3
			c0.1-0.2,0.3-0.4,0.4-0.6c0.4-0.6,0-1-0.2-1.1c0,0-2.3-1.6-5.4-1.6c-5,0-6.7,3.5-6.7,5.6c0,3.6,2.1,5,5.6,6.6
			c3.6,1.5,5.5,2.8,5.5,5c0,1.9-1.7,3.5-4.2,3.5c-2.8,0-5.1-2.2-5.4-2.4c-0.4-0.4-0.8-0.1-1.1,0.3c-0.2,0.2-0.3,0.4-0.5,0.6
			c-0.4,0.6-0.1,0.9,0.2,1.1c0.4,0.4,2.9,2.6,6.7,2.6c3.7,0,6.8-2.4,6.8-5.7C51.6,478.9,48.9,477.3,44.6,475.6z"/>
		<path fill="#FFFFFF" d="M67.1,467.4v-0.9c0-0.3-0.3-0.6-0.6-0.6H53.1c-0.3,0-0.6,0.3-0.6,0.6v0.9c0,0.3,0.3,0.6,0.6,0.6h5.5v19.4
			c0,0.3,0.3,0.6,0.6,0.6h1.2c0.3,0,0.6-0.3,0.6-0.6V468h5.5C66.8,468,67.1,467.7,67.1,467.4z"/>
		<path fill="#FFFFFF" d="M76,465.5h-0.3c-0.3,0-0.4,0.2-0.5,0.3l-9.6,21.3c-0.2,0.4,0.1,0.8,0.5,0.8h1.3c0.3,0,0.5-0.2,0.5-0.3
			l2.3-5.2h11.2l2.3,5.2c0.1,0.2,0.3,0.3,0.5,0.3h1.3c0.5,0,0.7-0.4,0.5-0.8l-9.6-21.3C76.5,465.7,76.3,465.5,76,465.5z M71.1,480.5
			l4.6-10.4H76c1.6,3.5,3.1,6.9,4.6,10.4H71.1z"/>
		<path fill="#FFFFFF" d="M106.3,465.8h-1.1c-0.3,0-0.6,0.3-0.6,0.6v16.9c0,0,0,0-0.1,0l-14.3-17.8h-0.8c-0.3,0-0.6,0.3-0.6,0.6
			v21.3c0,0.3,0.3,0.6,0.6,0.6h1.1c0.3,0,0.6-0.3,0.6-0.6v-17.2h0l14.5,18.1h0.6c0.3,0,0.6-0.3,0.6-0.6v-21.3
			C106.9,466.1,106.6,465.8,106.3,465.8z"/>
		<path fill="#FFFFFF" d="M123.6,465.8h-13.4c-0.3,0-0.6,0.3-0.6,0.6v0.9c0,0.3,0.3,0.6,0.6,0.6h5.5v19.4c0,0.3,0.3,0.6,0.6,0.6h1.2
			c0.3,0,0.6-0.3,0.6-0.6V468h5.5c0.3,0,0.6-0.3,0.6-0.6v-0.9C124.2,466.1,123.9,465.8,123.6,465.8z"/>
		<path fill="#FFFFFF" d="M140.7,465.8h-7c-0.3,0-0.6,0.3-0.6,0.6v21c0,0.3,0.3,0.6,0.6,0.6h1.2c0.3,0,0.6-0.3,0.6-0.6V480h5.2
			c3.9,0,7.1-3.2,7.1-7.1C147.8,469,144.6,465.8,140.7,465.8z M140.6,477.6h-5v-9.4h5c2.6,0,4.8,2,4.8,4.5
			C145.4,475.5,143.2,477.6,140.6,477.6z"/>
		<path fill="#FFFFFF" d="M164.3,465.8h-12.5c-0.3,0-0.6,0.3-0.6,0.6v21c0,0.3,0.3,0.6,0.6,0.6h12.5c0.3,0,0.6-0.3,0.6-0.6v-0.9
			c0-0.3-0.3-0.6-0.6-0.6h-10.6v-8.1h9.1c0.3,0,0.6-0.3,0.6-0.6v-0.9c0-0.3-0.3-0.6-0.6-0.6h-9.1V468h10.6c0.3,0,0.6-0.3,0.6-0.6
			v-0.9C164.9,466.1,164.6,465.8,164.3,465.8z"/>
		<path fill="#FFFFFF" d="M184.9,472.6c0-3.8-3.1-6.7-6.9-6.7h-8.2c-0.3,0-0.6,0.3-0.6,0.6v21c0,0.3,0.3,0.6,0.6,0.6h1.2
			c0.3,0,0.6-0.3,0.6-0.6v-8.1h6l4.2,8.4c0.1,0.1,0.2,0.3,0.5,0.3h1.6c0.5,0,0.8-0.5,0.5-0.9l-4.3-8
			C182.9,477.9,184.9,475.5,184.9,472.6z M177.8,477.2h-6.1v-9.1h6.1c2.4,0,4.6,2.1,4.6,4.5C182.4,475.2,180.3,477.2,177.8,477.2z"
			/>
		<path fill="#FFFFFF" d="M202.4,465.8h-12.5c-0.3,0-0.6,0.3-0.6,0.6v21c0,0.3,0.3,0.6,0.6,0.6h1.2c0.3,0,0.6-0.3,0.6-0.6v-8.6h9.1
			c0.3,0,0.6-0.3,0.6-0.6v-0.9c0-0.3-0.3-0.6-0.6-0.6h-9.1V468h10.6c0.3,0,0.6-0.3,0.6-0.6v-0.9C203,466.1,202.7,465.8,202.4,465.8z
			"/>
		<path fill="#FFFFFF" d="M216.3,465.5c-6.3,0-11.4,5.1-11.4,11.4c0,6.3,5,11.4,11.4,11.4c6.3,0,11.4-5,11.4-11.4
			C227.7,470.6,222.6,465.5,216.3,465.5z M216.3,486.1c-5,0-9.2-4.1-9.2-9.2c0-5,4.1-9.2,9.2-9.2c5,0,9.2,4.2,9.2,9.2
			C225.5,482,221.3,486.1,216.3,486.1z"/>
		<path fill="#FFFFFF" d="M247.5,472.6c0-3.8-3.1-6.7-6.9-6.7h-8.2c-0.3,0-0.6,0.3-0.6,0.6v21c0,0.3,0.3,0.6,0.6,0.6h1.2
			c0.3,0,0.6-0.3,0.6-0.6v-8.1h6l4.2,8.4c0.1,0.1,0.2,0.3,0.5,0.3h1.6c0.5,0,0.8-0.5,0.5-0.9l-4.3-8
			C245.5,477.9,247.5,475.5,247.5,472.6z M240.4,477.2h-6.1v-9.1h6.1c2.4,0,4.6,2.1,4.6,4.5C245,475.2,242.8,477.2,240.4,477.2z"/>
		<path fill="#FFFFFF" d="M269.7,465.5h-0.5c-0.2,0-0.5,0.2-0.5,0.3l-6.2,17.5c-0.1,0-0.1,0-0.2,0l-6.3-17.5
			c-0.1-0.2-0.3-0.3-0.5-0.3H255c-0.2,0-0.5,0.2-0.6,0.4l-4.1,21.3c-0.1,0.4,0.1,0.8,0.6,0.8h1.3c0.3,0,0.5-0.2,0.6-0.4l2.8-16.3
			c0,0,0.1,0,0.1,0l5.9,16.7c0.1,0.2,0.3,0.3,0.5,0.3h0.6c0.2,0,0.5-0.2,0.5-0.3l5.8-16.7c0,0,0.1,0,0.1,0l2.8,16.3
			c0.1,0.2,0.3,0.4,0.6,0.4h1.3c0.5,0,0.7-0.3,0.6-0.8l-4.1-21.3C270.2,465.7,269.9,465.5,269.7,465.5z"/>
		<path fill="#FFFFFF" d="M285.9,465.5h-0.3c-0.3,0-0.4,0.2-0.5,0.3l-9.6,21.3c-0.2,0.4,0.1,0.8,0.5,0.8h1.3c0.3,0,0.5-0.2,0.5-0.3
			l2.3-5.2h11.2l2.3,5.2c0.1,0.2,0.3,0.3,0.5,0.3h1.3c0.5,0,0.7-0.4,0.5-0.8l-9.6-21.3C286.3,465.7,286.1,465.5,285.9,465.5z
			 M280.9,480.5l4.6-10.4h0.3c1.6,3.5,3.1,6.9,4.6,10.4H280.9z"/>
		<path fill="#FFFFFF" d="M316.1,465.8H315c-0.3,0-0.6,0.3-0.6,0.6v16.9c0,0,0,0-0.1,0L300,465.5h-0.8c-0.3,0-0.6,0.3-0.6,0.6v21.3
			c0,0.3,0.3,0.6,0.6,0.6h1.1c0.3,0,0.6-0.3,0.6-0.6v-17.2h0l14.5,18.1h0.6c0.3,0,0.6-0.3,0.6-0.6v-21.3
			C316.7,466.1,316.4,465.8,316.1,465.8z"/>
		<path fill="#FFFFFF" d="M339,483.5c-0.2-0.1-0.4-0.2-0.8,0.1c-1.7,1.3-3.3,2.4-6,2.4c-5,0-8.8-4.2-8.8-9.1c0-4.9,3.8-9.1,8.8-9.1
			c2.2,0,4.4,1,6,2.4c0.3,0.3,0.6,0.3,0.8,0l0.9-0.9c0.3-0.3,0.2-0.6,0-0.9c-2.2-1.8-4.5-2.9-7.7-2.9c-6.3,0-11.4,5.1-11.4,11.4
			c0,6.3,5.1,11.4,11.4,11.4c2.8,0,5.5-1,7.7-3.1c0.2-0.2,0.3-0.7,0-0.9L339,483.5z"/>
		<path fill="#FFFFFF" d="M357,465.8h-12.5c-0.3,0-0.6,0.3-0.6,0.6v21c0,0.3,0.3,0.6,0.6,0.6H357c0.3,0,0.6-0.3,0.6-0.6v-0.9
			c0-0.3-0.3-0.6-0.6-0.6h-10.6v-8.1h9.1c0.3,0,0.6-0.3,0.6-0.6v-0.9c0-0.3-0.3-0.6-0.6-0.6h-9.1V468H357c0.3,0,0.6-0.3,0.6-0.6
			v-0.9C357.6,466.1,357.4,465.8,357,465.8z"/>
		<path fill="#FFFFFF" d="M375.8,465.8h-7c-0.3,0-0.6,0.3-0.6,0.6v21c0,0.3,0.3,0.6,0.6,0.6h1.2c0.3,0,0.6-0.3,0.6-0.6V480h5.2
			c3.9,0,7.1-3.2,7.1-7.1C382.9,469,379.7,465.8,375.8,465.8z M375.6,477.6h-5v-9.4h5c2.6,0,4.8,2,4.8,4.5
			C380.4,475.5,378.2,477.6,375.6,477.6z"/>
		<path fill="#FFFFFF" d="M402,472.6c0-3.8-3.1-6.7-6.9-6.7h-8.2c-0.3,0-0.6,0.3-0.6,0.6v21c0,0.3,0.3,0.6,0.6,0.6h1.2
			c0.3,0,0.6-0.3,0.6-0.6v-8.1h6.1l4.2,8.4c0.1,0.1,0.2,0.3,0.5,0.3h1.6c0.5,0,0.8-0.5,0.5-0.9l-4.3-8
			C400,477.9,402,475.5,402,472.6z M394.9,477.2h-6.1v-9.1h6.1c2.4,0,4.6,2.1,4.6,4.5C399.5,475.2,397.3,477.2,394.9,477.2z"/>
		<path fill="#FFFFFF" d="M419.5,465.8H407c-0.3,0-0.6,0.3-0.6,0.6v21c0,0.3,0.3,0.6,0.6,0.6h12.5c0.3,0,0.6-0.3,0.6-0.6v-0.9
			c0-0.3-0.3-0.6-0.6-0.6h-10.6v-8.1h9.1c0.3,0,0.6-0.3,0.6-0.6v-0.9c0-0.3-0.3-0.6-0.6-0.6h-9.1V468h10.6c0.3,0,0.6-0.3,0.6-0.6
			v-0.9C420.1,466.1,419.8,465.8,419.5,465.8z"/>
		<path fill="#FFFFFF" d="M441.4,465.8h-1.3c-0.3,0-0.5,0.2-0.5,0.3l-7.9,17.7h-0.1l-7.9-17.7c-0.1-0.2-0.3-0.3-0.5-0.3h-1.3
			c-0.5,0-0.7,0.4-0.5,0.8l9.6,21.3c0.1,0.2,0.3,0.3,0.5,0.3h0.3c0.3,0,0.4-0.2,0.5-0.3l9.6-21.3
			C442.1,466.2,441.9,465.8,441.4,465.8z"/>
		<path fill="#FFFFFF" d="M446.5,465.8h-1.3c-0.3,0-0.6,0.3-0.6,0.6v21c0,0.3,0.3,0.6,0.6,0.6h1.3c0.3,0,0.6-0.3,0.6-0.6v-21
			C447.1,466.1,446.8,465.8,446.5,465.8z"/>
		<path fill="#FFFFFF" d="M465.8,465.8h-12.5c-0.3,0-0.6,0.3-0.6,0.6v21c0,0.3,0.3,0.6,0.6,0.6h12.5c0.3,0,0.6-0.3,0.6-0.6v-0.9
			c0-0.3-0.3-0.6-0.6-0.6h-10.6v-8.1h9.1c0.3,0,0.6-0.3,0.6-0.6v-0.9c0-0.3-0.3-0.6-0.6-0.6h-9.1V468h10.6c0.3,0,0.6-0.3,0.6-0.6
			v-0.9C466.4,466.1,466.2,465.8,465.8,465.8z"/>
		<path fill="#FFFFFF" d="M494.3,465.8H493c-0.3,0-0.5,0.2-0.6,0.4l-4.3,16.4H488l-5.4-16.8c-0.1-0.2-0.3-0.3-0.5-0.3h-0.6
			c-0.3,0-0.5,0.2-0.5,0.3l-5.3,16.8h-0.1l-4.4-16.4c-0.1-0.2-0.3-0.4-0.6-0.4h-1.3c-0.4,0-0.7,0.3-0.6,0.8l6,21.3
			c0.1,0.3,0.3,0.4,0.6,0.4h0.5c0.2,0,0.4-0.2,0.5-0.3l5.4-17.1h0.2l5.5,17.1c0.1,0.2,0.3,0.3,0.5,0.3h0.5c0.2,0,0.5-0.2,0.6-0.4
			l6-21.3C495,466.1,494.7,465.8,494.3,465.8z"/>
	</g>
	<path fill="#FFFFFF" d="M407.7,96l-78.4-45.3l0,0l-0.7-0.4l-0.3-0.2l0,0L250,5l0,0l0,0l-78.4,45.2l0,0L92.3,96v90.5v1.1v90.5
		l78.8,45.5l0.5,0.3l0,0l77.9,45l0.5,0.3l78.8-45.5l0.5-0.3v0l78.4-45.3l0-90.5l0,0V96z M94.2,195.8l6.2-3.6l5.3,3l-11.5,6.6V195.8z
		 M320.4,317.2l7-4.1v3.5l-4,2.3L320.4,317.2z M315.5,314.3l11.9-6.9v3.5l-8.9,5.1L315.5,314.3z M300.8,305.9l26.6-15.4v3.5
		l-23.6,13.6L300.8,305.9z M286.1,297.4l41.3-23.9v3.5l-38.3,22.1L286.1,297.4z M271.4,288.9l56-32.3v3.5l-53,30.6L271.4,288.9z
		 M240.2,282.2l-67.7-39.1v-3.5l70.7,40.8L240.2,282.2z M235.3,285l-62.8-36.2v-3.5l65.8,38L235.3,285z M225.5,290.6l-53-30.6v-3.5
		l56,32.3L225.5,290.6z M220.6,293.5l-48.1-27.8v-3.5l51.1,29.5L220.6,293.5z M210.8,299.1L172.5,277v-3.5l41.3,23.9L210.8,299.1z
		 M205.9,302l-33.4-19.3v-3.5l36.4,21L205.9,302z M196.1,307.6L172.5,294v-3.5l26.6,15.4L196.1,307.6z M191.2,310.4l-18.7-10.8v-3.5
		l21.7,12.5L191.2,310.4z M181.4,316.1l-8.9-5.1v-3.5l11.9,6.9L181.4,316.1z M176.5,318.9l-4-2.3v-3.5l7,4.1L176.5,318.9z
		 M152.9,220.5l0-66.8l3.1-1.8l0,70.3L152.9,220.5z M157.8,223.3l0-72.5l3.1-1.8l0,76L157.8,223.3z M162.7,226.1l0-78.1l3.1-1.8
		l0,81.6L162.7,226.1z M167.6,229l0-83.8l3.1-1.8l0,87.3L167.6,229z M179.6,57l-7,4.1v-3.5l4-2.3L179.6,57z M194.3,65.5L172.5,78
		v-3.5l18.7-10.8L194.3,65.5z M259.8,92l67.7,39.1v3.5l-70.7-40.8L259.8,92z M274.5,83.5l53,30.6v3.5l-56-32.3L274.5,83.5z
		 M308.8,63.7l18.7,10.8V78l-21.7-12.5L308.8,63.7z M323.5,55.2l4,2.3V61l-7-4.1L323.5,55.2z M342.2,150.8l0,72.5l-3.1,1.8l0-76
		L342.2,150.8z M356.8,159.3l0,55.5l-3.1,1.8l0-59L356.8,159.3z M371.5,167.8v38.5l-3.1,1.8l0-42.1L371.5,167.8z M386.2,176.3v21.6
		l-3.1,1.8l0-25.1L386.2,176.3z M396,181.9l0,10.2l-3,1.8v-13.8L396,181.9z M391.1,195l-3.1,1.8v-19.4l3.1,1.8V195z M381.3,173.5
		l0,27.2l-3.1,1.8l0-30.7L381.3,173.5z M376.4,170.6l0,32.9l-3,1.8v-36.4L376.4,170.6z M366.6,165l0,44.2l-3.1,1.8l0-47.7L366.6,165
		z M361.7,162.1l0,49.8l-3,1.8l0-53.4L361.7,162.1z M351.9,156.5l0,61.2l-3.1,1.8l0-64.7L351.9,156.5z M347,153.7l0,66.8l-3.1,1.8
		l0-70.3L347,153.7z M337.3,148l0,78.1l-3.1,1.8l0-81.6L337.3,148z M332.4,145.2l0,83.8l-3.1,1.8l0-87.3L332.4,145.2z M326.5,141.8
		l-3.1,1.8l-72.5-41.9v-3.5L326.5,141.8z M248.1,187.1l-2.1,1.2l0-2.5L248.1,187.1z M251.8,187.1l2.1-1.2v2.5L251.8,187.1z
		 M250.9,185.5V183l2.1,1.2L250.9,185.5z M249.1,185.5l-2.1-1.2l2.1-1.2V185.5z M244.2,184.8l0,4.6l-3.1,1.8l0-8.1L244.2,184.8z
		 M249.1,188.7v2.5l-2.1-1.2L249.1,188.7z M250.9,188.7l2.1,1.2l-2.1,1.2V188.7z M255.8,189.4v-4.6l3.1-1.8l0,8.1L255.8,189.4z
		 M254.9,183.2l-4-2.3v-3.5l7,4.1L254.9,183.2z M249.1,180.9l-4,2.3l-3.1-1.8l7-4.1V180.9z M239.3,181.9l0,10.2l-3.1,1.8v-13.8
		L239.3,181.9z M245.1,191l4,2.3v3.5l-7-4.1L245.1,191z M250.9,193.3l4-2.3l3.1,1.8l-7,4.1V193.3z M260.7,192.2l0-10.2l3.1-1.8V194
		L260.7,192.2z M259.8,180.3l-8.9-5.1v-3.5l11.9,6.9L259.8,180.3z M249.1,175.2l-8.9,5.1l-3.1-1.8l11.9-6.9V175.2z M234.4,179.1V195
		l-3.1,1.8v-19.4L234.4,179.1z M240.2,193.8l8.9,5.1v3.5l-11.9-6.9L240.2,193.8z M250.9,198.9l8.9-5.1l3.1,1.8l-11.9,6.9V198.9z
		 M265.6,195v-15.9l3.1-1.8l0,19.4L265.6,195z M264.7,177.5l-13.8-7.9V166l16.8,9.7L264.7,177.5z M249.1,169.6l-13.8,8l-3.1-1.8
		l16.8-9.7V169.6z M229.5,176.3v21.6l-3.1,1.8l0-25.1L229.5,176.3z M235.3,196.6l13.8,8v3.5l-16.8-9.7L235.3,196.6z M250.9,204.6
		l13.8-7.9l3.1,1.8l-16.8,9.7V204.6z M270.5,197.8l0-21.6l3.1-1.8v25.1L270.5,197.8z M269.6,174.7l-18.7-10.8v-3.5l21.7,12.5
		L269.6,174.7z M249.1,163.9l-18.7,10.8l-3.1-1.8l21.7-12.5V163.9z M224.6,173.5l0,27.2l-3.1,1.8l0-30.7L224.6,173.5z M230.4,199.4
		l18.7,10.8v3.5l-21.7-12.5L230.4,199.4z M250.9,210.2l18.7-10.8l3.1,1.8l-21.7,12.5V210.2z M275.4,200.7v-27.2l3.1-1.8v30.7
		L275.4,200.7z M274.5,171.9l-23.6-13.6v-3.5l26.6,15.4L274.5,171.9z M249.1,158.3l-23.6,13.6l-3.1-1.8l26.6-15.4V158.3z
		 M219.7,170.6l0,32.9l-3.1,1.8l0-36.4L219.7,170.6z M225.5,202.3l23.6,13.6v3.5L222.5,204L225.5,202.3z M250.9,215.9l23.6-13.6
		l3.1,1.8l-26.6,15.4V215.9z M280.3,203.5v-32.9l3.1-1.8v36.4L280.3,203.5z M279.4,169l-28.5-16.4v-3.5l31.5,18.2L279.4,169z
		 M249.1,152.6L220.6,169l-3.1-1.8l31.5-18.2V152.6z M214.8,167.8l0,38.5l-3.1,1.8l0-42.1L214.8,167.8z M220.6,205.1l28.5,16.4v3.5
		l-31.5-18.2L220.6,205.1z M250.9,221.5l28.5-16.4l3.1,1.8l-31.5,18.2V221.5z M285.2,206.3v-38.5l3-1.8l0,42L285.2,206.3z
		 M284.3,166.2l-33.4-19.3v-3.5l36.4,21L284.3,166.2z M249.1,146.9l-33.4,19.3l-3.1-1.8l36.4-21V146.9z M209.9,165l0,44.2l-3.1,1.8
		l0-47.7L209.9,165z M215.7,207.9l33.4,19.3v3.5l-36.4-21L215.7,207.9z M250.9,227.2l33.4-19.3l3.1,1.8l-36.4,21V227.2z
		 M290.1,209.2l0-44.2l3.1-1.8l0,47.7L290.1,209.2z M289.2,163.4l-38.3-22.1v-3.5l41.3,23.9L289.2,163.4z M249.1,141.3l-38.3,22.1
		l-3.1-1.8l41.3-23.9V141.3z M205,162.2l0,49.8l-3.1,1.8l0-53.4L205,162.2z M210.8,210.8l38.3,22.1v3.5l-41.3-23.9L210.8,210.8z
		 M250.9,232.9l38.3-22.1l3.1,1.8l-41.3,23.9V232.9z M295,212l0-49.8l3.1-1.8l0,53.4L295,212z M294.1,160.5l-43.2-24.9v-3.5
		l46.2,26.7L294.1,160.5z M249.1,135.6l-43.2,24.9l-3.1-1.8l46.2-26.7V135.6z M200.1,159.3l0,55.5l-3.1,1.8l0-59L200.1,159.3z
		 M205.9,213.6l43.2,24.9v3.5l-46.2-26.7L205.9,213.6z M250.9,238.5l43.2-24.9l3.1,1.8L250.9,242V238.5z M299.9,214.8l0-55.5
		l3.1-1.8l0,59L299.9,214.8z M299,157.7L250.9,130v-3.5L302,156L299,157.7z M249.1,130L201,157.7L198,156l51.1-29.5V130z
		 M195.2,156.5l0,61.2l-3.1,1.8l0-64.7L195.2,156.5z M201,216.4l48.1,27.7v3.5L198,218.2L201,216.4z M250.9,244.2l48.1-27.7l3.1,1.8
		l-51.1,29.5V244.2z M304.8,217.6l0-61.1l3.1-1.8l0,64.7L304.8,217.6z M303.9,154.9l-53-30.6v-3.5l56,32.3L303.9,154.9z
		 M249.1,124.3l-53,30.6l-3.1-1.8l56-32.3V124.3z M190.3,153.7l0,66.8l-3.1,1.8l0-70.3L190.3,153.7z M196.1,219.2l53,30.6v3.5
		l-56-32.3L196.1,219.2z M250.9,249.8l53-30.6l3.1,1.8l-56,32.3V249.8z M309.7,220.5l0-66.8l3.1-1.8l0,70.3L309.7,220.5z
		 M308.8,152.1l-57.9-33.4v-3.5l60.9,35.2L308.8,152.1z M249.1,118.7l-57.9,33.4l-3.1-1.8l60.9-35.2V118.7z M185.4,150.8l0,72.5
		l-3.1,1.8l0-76L185.4,150.8z M191.2,222.1l57.9,33.4v3.5l-60.9-35.2L191.2,222.1z M250.9,255.5l57.9-33.4l3.1,1.8L250.9,259V255.5z
		 M314.6,223.3l0-72.5l3.1-1.8l0,76L314.6,223.3z M313.7,149.2L250.9,113v-3.5l65.8,38L313.7,149.2z M249.1,113l-62.8,36.2l-3.1-1.8
		l65.8-38V113z M180.5,148l0,78.1l-3.1,1.8l0-81.6L180.5,148z M186.3,224.9l62.8,36.2v3.5l-65.8-38L186.3,224.9z M250.9,261.1
		l62.8-36.2l3.1,1.8l-65.8,38V261.1z M319.5,226.1l0-78.1l3.1-1.8l0,81.6L319.5,226.1z M318.6,146.4l-67.6-39.1v-3.5l70.7,40.8
		L318.6,146.4z M249.1,107.3l-67.7,39.1l-3.1-1.8l70.7-40.8V107.3z M175.6,229l-3.1,1.8l0-87.3l3.1,1.8L175.6,229z M181.4,227.7
		l67.7,39.1v3.5l-70.7-40.8L181.4,227.7z M250.9,266.8l67.7-39.1l3.1,1.8l-70.7,40.8V266.8z M327.5,230.7l-3.1-1.8l0-83.8l3.1-1.8
		L327.5,230.7z M249.1,101.7l-72.6,41.9l-3.1-1.8l75.6-43.6V101.7z M176.5,230.6l72.6,41.9v3.5l-75.6-43.6L176.5,230.6z
		 M250.9,272.4l72.6-41.9l3.1,1.8L250.9,276V272.4z M318.6,58l8.9,5.1v3.5l-11.9-6.9L318.6,58z M313.7,60.9l13.8,8v3.5l-16.8-9.7
		L313.7,60.9z M303.9,66.5l23.6,13.6v3.5l-26.6-15.4L303.9,66.5z M299,69.4l28.5,16.4v3.5l-31.5-18.2L299,69.4z M294.1,72.2
		l33.4,19.3V95l-36.4-21L294.1,72.2z M289.2,75l38.3,22.1v3.5l-41.3-23.9L289.2,75z M284.3,77.8l43.2,24.9v3.5l-46.2-26.7
		L284.3,77.8z M279.4,80.7l48.1,27.8v3.5l-51.1-29.5L279.4,80.7z M269.6,86.3l57.9,33.4v3.5l-60.9-35.2L269.6,86.3z M264.7,89.2
		l62.8,36.2v3.5l-65.8-38L264.7,89.2z M254.9,94.8l72.6,41.9v3.5l-75.6-43.7L254.9,94.8z M172.5,140.2v-3.5l72.6-41.9l3.1,1.8
		L172.5,140.2z M243.3,93.7l-70.7,40.8V131L240.2,92L243.3,93.7z M172.5,128.9v-3.5l62.8-36.2l3.1,1.8L172.5,128.9z M172.5,123.2
		v-3.5l57.9-33.4l3.1,1.8L172.5,123.2z M228.6,85.3l-56,32.3v-3.5l53-30.6L228.6,85.3z M172.5,111.9v-3.5l48.1-27.7l3.1,1.8
		L172.5,111.9z M172.5,106.3v-3.5l43.2-24.9l3.1,1.8L172.5,106.3z M213.9,76.8l-41.3,23.9v-3.5L210.8,75L213.9,76.8z M172.5,95v-3.5
		l33.4-19.3l3.1,1.8L172.5,95z M172.5,89.3v-3.5L201,69.4l3.1,1.8L172.5,89.3z M172.5,83.7v-3.5l23.6-13.6l3.1,1.8L172.5,83.7z
		 M172.5,72.3v-3.5l13.8-8l3.1,1.8L172.5,72.3z M172.5,66.7v-3.5l8.9-5.1l3.1,1.8L172.5,66.7z M186.3,313.3l-13.8-8v-3.5l16.8,9.7
		L186.3,313.3z M201,304.8l-28.5-16.4v-3.5l31.5,18.2L201,304.8z M215.7,296.3l-43.2-24.9v-3.5l46.2,26.7L215.7,296.3z M230.4,287.8
		l-57.9-33.4v-3.5l60.9,35.2L230.4,287.8z M245.1,279.3l-72.6-41.9v-3.5l75.6,43.7L245.1,279.3z M327.5,233.9v3.5l-72.6,41.9
		l-3.1-1.8L327.5,233.9z M256.7,280.4l70.7-40.8v3.5l-67.7,39.1L256.7,280.4z M261.6,283.2l65.8-38v3.5L264.7,285L261.6,283.2z
		 M327.5,250.9v3.5l-57.9,33.4l-3.1-1.8L327.5,250.9z M276.3,291.7l51.1-29.5v3.5l-48.1,27.8L276.3,291.7z M327.5,267.9v3.5
		l-43.2,24.9l-3.1-1.8L327.5,267.9z M291,300.2l36.4-21v3.5L294.1,302L291,300.2z M327.5,284.8v3.5L299,304.8l-3.1-1.8L327.5,284.8z
		 M305.7,308.7l21.7-12.5v3.5l-18.7,10.8L305.7,308.7z M310.6,311.5l16.8-9.7v3.5l-13.8,8L310.6,311.5z M335.5,229.3l70.3,40.6v6.1
		l-75.6-43.7L335.5,229.3z M337.3,228.2l5.3-3l63.2,36.5v6.1L337.3,228.2z M344.5,224.1l5.3-3l56.1,32.4v6.1L344.5,224.1z
		 M351.6,220l5.3-3l49,28.3v6.1L351.6,220z M358.7,215.9l5.3-3l41.8,24.1v6.1L358.7,215.9z M365.8,211.8l5.3-3l34.7,20v6.1
		L365.8,211.8z M373,207.6l5.3-3l27.6,15.9v6.1L373,207.6z M380.1,203.5l5.3-3l20.5,11.8v6.1L380.1,203.5z M387.2,199.4l5.3-3
		l13.3,7.7v6.1L387.2,199.4z M394.3,195.3l5.3-3l6.2,3.6v6.1L394.3,195.3z M397.9,191.1l0-8.1l3.1,1.8v4.6L397.9,191.1z
		 M401.1,182.8l4.7-2.7l0,2.2l-2.8,1.6L401.1,182.8z M399.3,181.7l-1.9-1.1l8.4-4.9v2.2L399.3,181.7z M395.6,179.5l-1.9-1.1l12.2-7
		v2.2L395.6,179.5z M391.8,177.4l-1.9-1.1l15.9-9.2v2.2L391.8,177.4z M388.1,175.2l-1.9-1.1l19.6-11.3v2.2L388.1,175.2z
		 M384.4,173.1l-1.9-1.1l23.4-13.5l0,2.2L384.4,173.1z M380.6,170.9l-1.9-1.1l27.1-15.6v2.2L380.6,170.9z M376.9,168.8l-1.9-1.1
		l30.8-17.8v2.2L376.9,168.8z M373.2,166.6l-1.9-1.1l34.6-20l0,2.2L373.2,166.6z M369.4,164.5l-1.9-1.1l38.3-22.1v2.2L369.4,164.5z
		 M365.7,162.3l-1.9-1.1l42-24.3v2.2L365.7,162.3z M362,160.1l-1.9-1.1l45.8-26.4v2.2L362,160.1z M358.2,158l-1.9-1.1l49.5-28.6v2.2
		L358.2,158z M354.5,155.8l-1.9-1.1l53.2-30.7l0,2.2L354.5,155.8z M350.8,153.7l-1.9-1.1l56.9-32.9v2.2L350.8,153.7z M347,151.5
		l-1.9-1.1l60.7-35v2.2L347,151.5z M343.3,149.4l-1.9-1.1l64.4-37.2v2.2L343.3,149.4z M339.6,147.2l-1.9-1.1l68.1-39.3v2.2
		L339.6,147.2z M335.8,145.1L334,144l71.9-41.5l0,2.2L335.8,145.1z M332.1,142.9l-1.9-1.1l75.6-43.7v2.2L332.1,142.9z M329.3,140.2
		V138L403,95.5l1.9,1.1L329.3,140.2z M329.3,135.9v-2.2l70-40.4l1.9,1.1L329.3,135.9z M329.3,131.6v-2.2l66.3-38.3l1.9,1.1
		L329.3,131.6z M329.3,127.3v-2.2L391.8,89l1.9,1.1L329.3,127.3z M329.3,123v-2.2l58.8-33.9l1.9,1.1L329.3,123z M329.3,118.7v-2.2
		l55.1-31.8l1.9,1.1L329.3,118.7z M329.3,114.4v-2.2l51.3-29.6l1.9,1.1L329.3,114.4z M329.3,110.1v-2.2l47.6-27.5l1.9,1.1
		L329.3,110.1z M329.3,105.7v-2.2l43.9-25.3l1.9,1.1L329.3,105.7z M329.3,101.4v-2.2l40.1-23.2l1.9,1.1L329.3,101.4z M329.3,97.1
		v-2.2l36.4-21l1.9,1.1L329.3,97.1z M329.3,92.8v-2.2L362,71.8l1.9,1.1L329.3,92.8z M329.3,88.5v-2.2l28.9-16.7l1.9,1.1L329.3,88.5z
		 M329.3,84.2V82l25.2-14.6l1.9,1.1L329.3,84.2z M329.3,79.9v-2.2l21.5-12.4l1.9,1.1L329.3,79.9z M329.3,75.6v-2.2L347,63.2l1.9,1.1
		L329.3,75.6z M329.3,71.3v-2.2l14-8.1l1.9,1.1L329.3,71.3z M329.3,67v-2.2l10.3-5.9l1.9,1.1L329.3,67z M329.3,62.6v-2.2l6.5-3.8
		l1.9,1.1L329.3,62.6z M329.3,58.3v-2.2l2.8-1.6l1.9,1.1L329.3,58.3z M329.3,54v-1.1l1,0.6L329.3,54z M327.5,55.4l-2.1-1.2l2.1-1.2
		V55.4z M322.2,53.8v-5l4.4,2.5L322.2,53.8z M320.3,54.9l-5.3,3V44.7l5.3,3V54.9z M313.2,59l-5.3,3l0-21.5l5.3,3V59z M306.1,63.1
		l-5.3,3l0-29.7l5.3,3L306.1,63.1z M299,67.2l-5.3,3l0-37.9l5.3,3L299,67.2z M291.8,71.4l-5.3,3l0-46.2l5.3,3L291.8,71.4z
		 M284.7,75.5l-5.3,3l0-54.4l5.3,3L284.7,75.5z M277.6,79.6l-5.3,3l0-62.6l5.3,3L277.6,79.6z M270.5,83.7l-5.3,3l0-70.8l5.3,3
		L270.5,83.7z M263.3,87.8l-5.3,3l0-79.1l5.3,3L263.3,87.8z M256.2,91.9l-5.3,3l0-87.3l5.3,3L256.2,91.9z M249.1,95l-5.3-3l0-81.2
		l5.3-3.1L249.1,95z M242,90.9l-5.3-3l0-73l5.3-3L242,90.9z M234.8,86.7l-5.3-3l0-64.8l5.3-3L234.8,86.7z M227.7,82.6l-5.3-3l0-56.5
		l5.3-3L227.7,82.6z M220.6,78.5l-5.3-3l0-48.3l5.3-3L220.6,78.5z M213.5,74.4l-5.3-3l0-40.1l5.3-3L213.5,74.4z M206.3,70.3l-5.3-3
		l0-31.8l5.3-3L206.3,70.3z M199.2,66.2l-5.3-3l0-23.6l5.3-3L199.2,66.2z M192.1,62.1l-5.3-3l0-15.4l5.3-3L192.1,62.1z M185,57.9
		l-5.3-3v-7.2l5.3-3L185,57.9z M177.8,53.8l-4.4-2.5l4.4-2.5V53.8z M174.7,54.1l-2.1,1.2v-2.5L174.7,54.1z M170.7,56.2v2.2l-4.7-2.7
		l1.9-1.1L170.7,56.2z M169.7,53.5l1-0.6V54L169.7,53.5z M170.7,60.5v2.2l-8.4-4.9l1.9-1.1L170.7,60.5z M170.7,64.8V67l-12.2-7
		l1.9-1.1L170.7,64.8z M170.7,69.1v2.2l-15.9-9.2l1.9-1.1L170.7,69.1z M170.7,73.4v2.2l-19.6-11.3l1.9-1.1L170.7,73.4z M170.7,77.7
		v2.2l-23.4-13.5l1.9-1.1L170.7,77.7z M170.7,82v2.2l-27.1-15.6l1.9-1.1L170.7,82z M170.7,86.3v2.2l-30.8-17.8l1.9-1.1L170.7,86.3z
		 M170.7,90.6v2.2l-34.6-19.9l1.9-1.1L170.7,90.6z M170.7,94.9v2.2L132.4,75l1.9-1.1L170.7,94.9z M170.7,99.3v2.2l-42-24.3l1.9-1.1
		L170.7,99.3z M170.7,103.6v2.2L125,79.3l1.9-1.1L170.7,103.6z M170.7,107.9v2.2l-49.5-28.6l1.9-1.1L170.7,107.9z M170.7,112.2v2.2
		l-53.2-30.7l1.9-1.1L170.7,112.2z M170.7,116.5v2.2l-56.9-32.9l1.9-1.1L170.7,116.5z M170.7,120.8v2.2l-60.7-35l1.9-1.1
		L170.7,120.8z M170.7,125.1v2.2l-64.4-37.2l1.9-1.1L170.7,125.1z M170.7,129.4v2.2l-68.1-39.3l1.9-1.1L170.7,129.4z M170.7,133.7
		v2.2L98.8,94.4l1.9-1.1L170.7,133.7z M170.7,138v2.2L95.1,96.6l1.9-1.1L170.7,138z M169.8,141.8l-1.9,1.1l-73.7-42.6v-2.2
		L169.8,141.8z M166,144l-1.9,1.1l-70-40.4v-2.2L166,144z M162.3,146.1l-1.9,1.1L94.2,109v-2.2L162.3,146.1z M158.6,148.3l-1.9,1.1
		l-62.5-36.1v-2.2L158.6,148.3z M154.8,150.4l-1.9,1.1l-58.8-33.9v-2.2L154.8,150.4z M151.1,152.6l-1.9,1.1l-55.1-31.8v-2.2
		L151.1,152.6z M147.4,154.8l-1.9,1.1l-51.3-29.6V124L147.4,154.8z M143.6,156.9l-1.9,1.1l-47.6-27.5v-2.2L143.6,156.9z
		 M139.9,159.1l-1.9,1.1l-43.9-25.3v-2.2L139.9,159.1z M123.6,203.5l0-32.9l3.1-1.8l0,36.4L123.6,203.5z M128.5,206.3l0-38.5
		l3.1-1.8l0,42L128.5,206.3z M133.4,209.2l0-44.2l3.1-1.8l0,47.7L133.4,209.2z M136.2,161.2l-1.9,1.1l-40.1-23.2V137L136.2,161.2z
		 M132.5,163.4l-1.9,1.1l-36.4-21v-2.2L132.5,163.4z M128.7,165.5l-1.9,1.1l-32.7-18.9v-2.2L128.7,165.5z M125,167.7l-1.9,1.1
		l-28.9-16.7v-2.2L125,167.7z M121.3,169.8l-1.9,1.1l-25.2-14.5v-2.2L121.3,169.8z M117.5,172l-1.9,1.1l-21.5-12.4v-2.2L117.5,172z
		 M113.8,174.1l-1.9,1.1L94.2,165v-2.2L113.8,174.1z M110.1,176.3l-1.9,1.1l-14-8.1v-2.2L110.1,176.3z M106.3,178.5l-1.9,1.1
		l-10.3-5.9v-2.2L106.3,178.5z M102.6,180.6l-1.9,1.1l-6.5-3.8v-2.2L102.6,180.6z M102.1,183l0,8.1l-3.1-1.8v-4.6L102.1,183z
		 M104,192.2l0-10.2l3.1-1.8l0,13.8L104,192.2z M108.9,195l0-15.9l3.1-1.8v19.4L108.9,195z M113.8,197.8v-21.6l3-1.8l0,25.1
		L113.8,197.8z M118.7,200.7l0-27.2l3.1-1.8l0,30.7L118.7,200.7z M127,207.6l-32.9,19v-6.1l27.6-15.9L127,207.6z M94.2,228.7
		l34.7-20l5.3,3l-40,23.1V228.7z M138.3,212l0-49.8l3.1-1.8l0,53.4L138.3,212z M143.2,214.8l0-55.5l3.1-1.8l0,59L143.2,214.8z
		 M148,217.6l0-61.1l3.1-1.8l0,64.7L148,217.6z M155.5,224.1l-61.4,35.4v-6.1l56.1-32.4L155.5,224.1z M94.2,261.6l63.2-36.5l5.3,3
		l-68.5,39.5V261.6z M94.2,269.9l70.3-40.6l5.3,3L94.2,276V269.9z M170.7,233.9v6.1l-70.3,40.6l-5.3-3L170.7,233.9z M170.7,242.1
		v6.1l-63.2,36.5l-5.3-3L170.7,242.1z M170.7,250.4v6.1l-56.1,32.4l-5.3-3L170.7,250.4z M170.7,258.6v6.1l-49,28.3l-5.3-3
		L170.7,258.6z M170.7,266.8v6.1l-41.8,24.2l-5.3-3L170.7,266.8z M170.7,275.1v6.1l-34.7,20l-5.3-3L170.7,275.1z M170.7,283.3v6.1
		l-27.6,15.9l-5.3-3L170.7,283.3z M170.7,291.5v6.1l-20.5,11.8l-5.3-3L170.7,291.5z M170.7,299.7v6.1l-13.3,7.7l-5.3-3L170.7,299.7z
		 M170.7,308v6.1l-6.2,3.6l-5.3-3L170.7,308z M170.7,316.2v5l-4.4-2.5L170.7,316.2z M174.7,320l-2.1,1.2v-2.5L174.7,320z
		 M176.3,321.2l1.9-1.1v5.4l-1.9-1.1V321.2z M174.4,323.4l-1-0.6l1-0.6V323.4z M180,319l1.9-1.1l0,9.7l-1.9-1.1V319z M183.7,316.9
		l1.9-1.1l0,14l-1.9-1.1L183.7,316.9z M187.5,314.7l1.9-1.1l0,18.3l-1.9-1.1L187.5,314.7z M191.2,312.6l1.9-1.1l0,22.7l-1.9-1.1
		L191.2,312.6z M194.9,310.4l1.9-1.1l0,27l-1.9-1.1L194.9,310.4z M198.7,308.3l1.9-1.1l0,31.3l-1.9-1.1L198.7,308.3z M202.4,306.1
		l1.9-1.1l0,35.6l-1.9-1.1L202.4,306.1z M206.1,304l1.9-1.1l0,39.9l-1.9-1.1L206.1,304z M209.9,301.8l1.9-1.1l0,44.2l-1.9-1.1
		L209.9,301.8z M213.6,299.7l1.9-1.1l0,48.5l-1.9-1.1L213.6,299.7z M217.3,297.5l1.9-1.1l0,52.8l-1.9-1.1L217.3,297.5z M221.1,295.3
		l1.9-1.1l0,57.1l-1.9-1.1L221.1,295.3z M224.8,293.2l1.9-1.1l0,61.4l-1.9-1.1L224.8,293.2z M228.5,291l1.9-1.1l0,65.8l-1.9-1.1
		L228.5,291z M232.3,288.9l1.9-1.1l0,70.1l-1.9-1.1L232.3,288.9z M236,286.7l1.9-1.1l0,74.4l-1.9-1.1L236,286.7z M239.7,284.6
		l1.9-1.1l0,78.7l-1.9-1.1L239.7,284.6z M243.5,282.4l1.9-1.1l0,83l-1.9-1.1L243.5,282.4z M247.2,280.3l1.9-1.1l0,87.3l-1.9-1.1
		L247.2,280.3z M250.9,279.2l1.9,1.1l0,85.1l-1.9,1.1L250.9,279.2z M254.7,281.3l1.9,1.1l0,80.8l-1.9,1.1L254.7,281.3z M258.4,283.5
		l1.9,1.1l0,76.5l-1.9,1.1L258.4,283.5z M262.1,285.6l1.9,1.1l0,72.2l-1.9,1.1L262.1,285.6z M265.9,287.8l1.9,1.1l0,67.9l-1.9,1.1
		L265.9,287.8z M269.6,289.9l1.9,1.1l0,63.6l-1.9,1.1L269.6,289.9z M273.3,292.1l1.9,1.1l0,59.3l-1.9,1.1L273.3,292.1z M277.1,294.3
		l1.9,1.1l0,55l-1.9,1.1L277.1,294.3z M280.8,296.4l1.9,1.1l0,50.6l-1.9,1.1L280.8,296.4z M284.5,298.6l1.9,1.1V346l-1.9,1.1
		L284.5,298.6z M288.2,300.7l1.9,1.1l0,42l-1.9,1.1V300.7z M292,302.9l1.9,1.1l0,37.7l-1.9,1.1L292,302.9z M295.7,305l1.9,1.1
		l0,33.4l-1.9,1.1L295.7,305z M299.4,307.2l1.9,1.1v29.1l-1.9,1.1L299.4,307.2z M303.2,309.3l1.9,1.1l0,24.8l-1.9,1.1V309.3z
		 M306.9,311.5l1.9,1.1l0,20.5l-1.9,1.1L306.9,311.5z M310.6,313.7l1.9,1.1l0,16.2l-1.9,1.1L310.6,313.7z M314.4,315.8l1.9,1.1
		l0,11.9l-1.9,1.1L314.4,315.8z M318.1,318l1.9,1.1v7.5l-1.9,1.1L318.1,318z M321.8,320.1l1.9,1.1v3.2l-1.9,1.1V320.1z M325.6,322.3
		l1,0.6l-1,0.6V322.3z M325.3,320l2.1-1.2v2.5L325.3,320z M329.3,316.2l4.4,2.5l-4.4,2.5V316.2z M329.3,314.1V308l11.5,6.6l-5.3,3
		L329.3,314.1z M329.3,305.8v-6.1l18.6,10.7l-5.3,3L329.3,305.8z M329.3,297.6v-6.1l25.7,14.9l-5.3,3L329.3,297.6z M329.3,289.4
		v-6.1l32.9,19l-5.3,3L329.3,289.4z M329.3,281.1v-6.1l40,23.1l-5.3,3L329.3,281.1z M329.3,272.9v-6.1l47.1,27.2l-5.3,3L329.3,272.9
		z M329.3,264.7v-6.1l54.2,31.3l-5.3,3L329.3,264.7z M329.3,256.5v-6.1l61.4,35.4l-5.3,3L329.3,256.5z M329.3,248.2v-6.1l68.5,39.5
		l-5.3,3L329.3,248.2z M329.3,240v-6.1l75.6,43.6l-5.3,3L329.3,240z M401.5,191.2l4.4-2.5v5L401.5,191.2z M402.8,188.3v-2.5l2.1,1.2
		L402.8,188.3z M404.9,184.9l1-0.6v1.1L404.9,184.9z M94.2,180.1l4.7,2.7l-1.9,1.1l-2.8-1.6V180.1z M97.2,185.8v2.4l-2.1-1.2
		L97.2,185.8z M94.2,204.1l13.3-7.7l5.3,3l-18.6,10.7V204.1z M94.2,212.3l20.4-11.8l5.3,3l-25.7,14.9V212.3z M94.2,237l41.8-24.1
		l5.3,3l-47.1,27.2V237z M94.2,245.2l48.9-28.3l5.3,3l-54.2,31.3V245.2z M94.2,184.4l1,0.6l-1,0.6V184.4z M98.5,191.2l-4.4,2.5v-5
		L98.5,191.2z"/>
</g>
</svg>
